G04 #@! TF.GenerationSoftware,KiCad,Pcbnew,(5.1.2)-2*
G04 #@! TF.CreationDate,2019-07-22T07:28:34+02:00*
G04 #@! TF.ProjectId,DiscreteOperationalAmplifier,44697363-7265-4746-954f-706572617469,rev?*
G04 #@! TF.SameCoordinates,Original*
G04 #@! TF.FileFunction,Legend,Bot*
G04 #@! TF.FilePolarity,Positive*
%FSLAX46Y46*%
G04 Gerber Fmt 4.6, Leading zero omitted, Abs format (unit mm)*
G04 Created by KiCad (PCBNEW (5.1.2)-2) date 2019-07-22 07:28:34*
%MOMM*%
%LPD*%
G04 APERTURE LIST*
%ADD10C,0.150000*%
%ADD11C,0.127000*%
%ADD12C,1.500000*%
G04 APERTURE END LIST*
D10*
X89437333Y-41015500D02*
X89522000Y-40973166D01*
X89649000Y-40973166D01*
X89776000Y-41015500D01*
X89860666Y-41100166D01*
X89903000Y-41184833D01*
X89945333Y-41354166D01*
X89945333Y-41481166D01*
X89903000Y-41650500D01*
X89860666Y-41735166D01*
X89776000Y-41819833D01*
X89649000Y-41862166D01*
X89564333Y-41862166D01*
X89437333Y-41819833D01*
X89395000Y-41777500D01*
X89395000Y-41481166D01*
X89564333Y-41481166D01*
X89014000Y-41862166D02*
X89014000Y-40973166D01*
X88506000Y-41862166D01*
X88506000Y-40973166D01*
X88082666Y-41862166D02*
X88082666Y-40973166D01*
X87871000Y-40973166D01*
X87744000Y-41015500D01*
X87659333Y-41100166D01*
X87617000Y-41184833D01*
X87574666Y-41354166D01*
X87574666Y-41481166D01*
X87617000Y-41650500D01*
X87659333Y-41735166D01*
X87744000Y-41819833D01*
X87871000Y-41862166D01*
X88082666Y-41862166D01*
D11*
X103048428Y-52294714D02*
X103302428Y-51931857D01*
X103483857Y-52294714D02*
X103483857Y-51532714D01*
X103193571Y-51532714D01*
X103121000Y-51569000D01*
X103084714Y-51605285D01*
X103048428Y-51677857D01*
X103048428Y-51786714D01*
X103084714Y-51859285D01*
X103121000Y-51895571D01*
X103193571Y-51931857D01*
X103483857Y-51931857D01*
X102431571Y-52258428D02*
X102504142Y-52294714D01*
X102649285Y-52294714D01*
X102721857Y-52258428D01*
X102758142Y-52185857D01*
X102758142Y-51895571D01*
X102721857Y-51823000D01*
X102649285Y-51786714D01*
X102504142Y-51786714D01*
X102431571Y-51823000D01*
X102395285Y-51895571D01*
X102395285Y-51968142D01*
X102758142Y-52040714D01*
X102141285Y-51786714D02*
X101959857Y-52294714D01*
X101778428Y-51786714D01*
X100508428Y-52294714D02*
X100943857Y-52294714D01*
X100726142Y-52294714D02*
X100726142Y-51532714D01*
X100798714Y-51641571D01*
X100871285Y-51714142D01*
X100943857Y-51750428D01*
X100181857Y-52222142D02*
X100145571Y-52258428D01*
X100181857Y-52294714D01*
X100218142Y-52258428D01*
X100181857Y-52222142D01*
X100181857Y-52294714D01*
X99673857Y-51532714D02*
X99601285Y-51532714D01*
X99528714Y-51569000D01*
X99492428Y-51605285D01*
X99456142Y-51677857D01*
X99419857Y-51823000D01*
X99419857Y-52004428D01*
X99456142Y-52149571D01*
X99492428Y-52222142D01*
X99528714Y-52258428D01*
X99601285Y-52294714D01*
X99673857Y-52294714D01*
X99746428Y-52258428D01*
X99782714Y-52222142D01*
X99819000Y-52149571D01*
X99855285Y-52004428D01*
X99855285Y-51823000D01*
X99819000Y-51677857D01*
X99782714Y-51605285D01*
X99746428Y-51569000D01*
X99673857Y-51532714D01*
D10*
X103163928Y-48387380D02*
X102973452Y-48387380D01*
X102878214Y-48435000D01*
X102782976Y-48530238D01*
X102735357Y-48720714D01*
X102735357Y-49054047D01*
X102782976Y-49244523D01*
X102878214Y-49339761D01*
X102973452Y-49387380D01*
X103163928Y-49387380D01*
X103259166Y-49339761D01*
X103354404Y-49244523D01*
X103402023Y-49054047D01*
X103402023Y-48720714D01*
X103354404Y-48530238D01*
X103259166Y-48435000D01*
X103163928Y-48387380D01*
X102306785Y-48720714D02*
X102306785Y-49720714D01*
X102306785Y-48768333D02*
X102211547Y-48720714D01*
X102021071Y-48720714D01*
X101925833Y-48768333D01*
X101878214Y-48815952D01*
X101830595Y-48911190D01*
X101830595Y-49196904D01*
X101878214Y-49292142D01*
X101925833Y-49339761D01*
X102021071Y-49387380D01*
X102211547Y-49387380D01*
X102306785Y-49339761D01*
X101021071Y-49339761D02*
X101116309Y-49387380D01*
X101306785Y-49387380D01*
X101402023Y-49339761D01*
X101449642Y-49244523D01*
X101449642Y-48863571D01*
X101402023Y-48768333D01*
X101306785Y-48720714D01*
X101116309Y-48720714D01*
X101021071Y-48768333D01*
X100973452Y-48863571D01*
X100973452Y-48958809D01*
X101449642Y-49054047D01*
X100544880Y-49387380D02*
X100544880Y-48720714D01*
X100544880Y-48911190D02*
X100497261Y-48815952D01*
X100449642Y-48768333D01*
X100354404Y-48720714D01*
X100259166Y-48720714D01*
X99497261Y-49387380D02*
X99497261Y-48863571D01*
X99544880Y-48768333D01*
X99640119Y-48720714D01*
X99830595Y-48720714D01*
X99925833Y-48768333D01*
X99497261Y-49339761D02*
X99592500Y-49387380D01*
X99830595Y-49387380D01*
X99925833Y-49339761D01*
X99973452Y-49244523D01*
X99973452Y-49149285D01*
X99925833Y-49054047D01*
X99830595Y-49006428D01*
X99592500Y-49006428D01*
X99497261Y-48958809D01*
X99163928Y-48720714D02*
X98782976Y-48720714D01*
X99021071Y-48387380D02*
X99021071Y-49244523D01*
X98973452Y-49339761D01*
X98878214Y-49387380D01*
X98782976Y-49387380D01*
X98449642Y-49387380D02*
X98449642Y-48720714D01*
X98449642Y-48387380D02*
X98497261Y-48435000D01*
X98449642Y-48482619D01*
X98402023Y-48435000D01*
X98449642Y-48387380D01*
X98449642Y-48482619D01*
X97830595Y-49387380D02*
X97925833Y-49339761D01*
X97973452Y-49292142D01*
X98021071Y-49196904D01*
X98021071Y-48911190D01*
X97973452Y-48815952D01*
X97925833Y-48768333D01*
X97830595Y-48720714D01*
X97687738Y-48720714D01*
X97592500Y-48768333D01*
X97544880Y-48815952D01*
X97497261Y-48911190D01*
X97497261Y-49196904D01*
X97544880Y-49292142D01*
X97592500Y-49339761D01*
X97687738Y-49387380D01*
X97830595Y-49387380D01*
X97068690Y-48720714D02*
X97068690Y-49387380D01*
X97068690Y-48815952D02*
X97021071Y-48768333D01*
X96925833Y-48720714D01*
X96782976Y-48720714D01*
X96687738Y-48768333D01*
X96640119Y-48863571D01*
X96640119Y-49387380D01*
X95735357Y-49387380D02*
X95735357Y-48863571D01*
X95782976Y-48768333D01*
X95878214Y-48720714D01*
X96068690Y-48720714D01*
X96163928Y-48768333D01*
X95735357Y-49339761D02*
X95830595Y-49387380D01*
X96068690Y-49387380D01*
X96163928Y-49339761D01*
X96211547Y-49244523D01*
X96211547Y-49149285D01*
X96163928Y-49054047D01*
X96068690Y-49006428D01*
X95830595Y-49006428D01*
X95735357Y-48958809D01*
X95116309Y-49387380D02*
X95211547Y-49339761D01*
X95259166Y-49244523D01*
X95259166Y-48387380D01*
X103402023Y-50751666D02*
X102925833Y-50751666D01*
X103497261Y-51037380D02*
X103163928Y-50037380D01*
X102830595Y-51037380D01*
X102497261Y-51037380D02*
X102497261Y-50370714D01*
X102497261Y-50465952D02*
X102449642Y-50418333D01*
X102354404Y-50370714D01*
X102211547Y-50370714D01*
X102116309Y-50418333D01*
X102068690Y-50513571D01*
X102068690Y-51037380D01*
X102068690Y-50513571D02*
X102021071Y-50418333D01*
X101925833Y-50370714D01*
X101782976Y-50370714D01*
X101687738Y-50418333D01*
X101640119Y-50513571D01*
X101640119Y-51037380D01*
X101163928Y-50370714D02*
X101163928Y-51370714D01*
X101163928Y-50418333D02*
X101068690Y-50370714D01*
X100878214Y-50370714D01*
X100782976Y-50418333D01*
X100735357Y-50465952D01*
X100687738Y-50561190D01*
X100687738Y-50846904D01*
X100735357Y-50942142D01*
X100782976Y-50989761D01*
X100878214Y-51037380D01*
X101068690Y-51037380D01*
X101163928Y-50989761D01*
X100116309Y-51037380D02*
X100211547Y-50989761D01*
X100259166Y-50894523D01*
X100259166Y-50037380D01*
X99735357Y-51037380D02*
X99735357Y-50370714D01*
X99735357Y-50037380D02*
X99782976Y-50085000D01*
X99735357Y-50132619D01*
X99687738Y-50085000D01*
X99735357Y-50037380D01*
X99735357Y-50132619D01*
X99402023Y-50370714D02*
X99021071Y-50370714D01*
X99259166Y-51037380D02*
X99259166Y-50180238D01*
X99211547Y-50085000D01*
X99116309Y-50037380D01*
X99021071Y-50037380D01*
X98687738Y-51037380D02*
X98687738Y-50370714D01*
X98687738Y-50037380D02*
X98735357Y-50085000D01*
X98687738Y-50132619D01*
X98640119Y-50085000D01*
X98687738Y-50037380D01*
X98687738Y-50132619D01*
X97830595Y-50989761D02*
X97925833Y-51037380D01*
X98116309Y-51037380D01*
X98211547Y-50989761D01*
X98259166Y-50894523D01*
X98259166Y-50513571D01*
X98211547Y-50418333D01*
X98116309Y-50370714D01*
X97925833Y-50370714D01*
X97830595Y-50418333D01*
X97782976Y-50513571D01*
X97782976Y-50608809D01*
X98259166Y-50704047D01*
X97354404Y-51037380D02*
X97354404Y-50370714D01*
X97354404Y-50561190D02*
X97306785Y-50465952D01*
X97259166Y-50418333D01*
X97163928Y-50370714D01*
X97068690Y-50370714D01*
X103368095Y-53882380D02*
X103368095Y-54596666D01*
X103415714Y-54739523D01*
X103510952Y-54834761D01*
X103653809Y-54882380D01*
X103749047Y-54882380D01*
X102463333Y-54215714D02*
X102463333Y-54882380D01*
X102891904Y-54215714D02*
X102891904Y-54739523D01*
X102844285Y-54834761D01*
X102749047Y-54882380D01*
X102606190Y-54882380D01*
X102510952Y-54834761D01*
X102463333Y-54787142D01*
X101844285Y-54882380D02*
X101939523Y-54834761D01*
X101987142Y-54739523D01*
X101987142Y-53882380D01*
X101558571Y-54215714D02*
X101320476Y-54882380D01*
X101082380Y-54215714D02*
X101320476Y-54882380D01*
X101415714Y-55120476D01*
X101463333Y-55168095D01*
X101558571Y-55215714D01*
X99987142Y-53977619D02*
X99939523Y-53930000D01*
X99844285Y-53882380D01*
X99606190Y-53882380D01*
X99510952Y-53930000D01*
X99463333Y-53977619D01*
X99415714Y-54072857D01*
X99415714Y-54168095D01*
X99463333Y-54310952D01*
X100034761Y-54882380D01*
X99415714Y-54882380D01*
X98796666Y-53882380D02*
X98701428Y-53882380D01*
X98606190Y-53930000D01*
X98558571Y-53977619D01*
X98510952Y-54072857D01*
X98463333Y-54263333D01*
X98463333Y-54501428D01*
X98510952Y-54691904D01*
X98558571Y-54787142D01*
X98606190Y-54834761D01*
X98701428Y-54882380D01*
X98796666Y-54882380D01*
X98891904Y-54834761D01*
X98939523Y-54787142D01*
X98987142Y-54691904D01*
X99034761Y-54501428D01*
X99034761Y-54263333D01*
X98987142Y-54072857D01*
X98939523Y-53977619D01*
X98891904Y-53930000D01*
X98796666Y-53882380D01*
X97510952Y-54882380D02*
X98082380Y-54882380D01*
X97796666Y-54882380D02*
X97796666Y-53882380D01*
X97891904Y-54025238D01*
X97987142Y-54120476D01*
X98082380Y-54168095D01*
X97034761Y-54882380D02*
X96844285Y-54882380D01*
X96749047Y-54834761D01*
X96701428Y-54787142D01*
X96606190Y-54644285D01*
X96558571Y-54453809D01*
X96558571Y-54072857D01*
X96606190Y-53977619D01*
X96653809Y-53930000D01*
X96749047Y-53882380D01*
X96939523Y-53882380D01*
X97034761Y-53930000D01*
X97082380Y-53977619D01*
X97130000Y-54072857D01*
X97130000Y-54310952D01*
X97082380Y-54406190D01*
X97034761Y-54453809D01*
X96939523Y-54501428D01*
X96749047Y-54501428D01*
X96653809Y-54453809D01*
X96606190Y-54406190D01*
X96558571Y-54310952D01*
X103810000Y-43220000D02*
G75*
G03X103810000Y-43220000I-3000000J0D01*
G01*
D12*
X101310000Y-43220000D02*
G75*
G03X101310000Y-43220000I-500000J0D01*
G01*
M02*
