G04 #@! TF.GenerationSoftware,KiCad,Pcbnew,(5.1.2)-2*
G04 #@! TF.CreationDate,2019-07-22T07:28:34+02:00*
G04 #@! TF.ProjectId,DiscreteOperationalAmplifier,44697363-7265-4746-954f-706572617469,rev?*
G04 #@! TF.SameCoordinates,Original*
G04 #@! TF.FileFunction,Copper,L1,Top*
G04 #@! TF.FilePolarity,Positive*
%FSLAX46Y46*%
G04 Gerber Fmt 4.6, Leading zero omitted, Abs format (unit mm)*
G04 Created by KiCad (PCBNEW (5.1.2)-2) date 2019-07-22 07:28:34*
%MOMM*%
%LPD*%
G04 APERTURE LIST*
%ADD10R,0.750000X1.200000*%
%ADD11R,1.000000X1.000000*%
%ADD12R,1.200000X0.900000*%
%ADD13R,0.900000X1.200000*%
%ADD14R,1.500000X0.400000*%
%ADD15R,0.400000X1.500000*%
%ADD16R,0.900000X0.800000*%
%ADD17R,0.800000X0.900000*%
%ADD18R,3.150000X1.000000*%
%ADD19C,0.600000*%
%ADD20C,0.254000*%
%ADD21C,0.152400*%
G04 APERTURE END LIST*
D10*
X94075000Y-44425000D03*
X94075000Y-42525000D03*
X93000000Y-44425000D03*
X93000000Y-42525000D03*
X91925000Y-44425000D03*
X91925000Y-42525000D03*
X90850000Y-42525000D03*
X90850000Y-44425000D03*
X102630000Y-48480000D03*
X102630000Y-46580000D03*
X104050000Y-46590000D03*
X104050000Y-48490000D03*
D11*
X95300000Y-42450000D03*
X97800000Y-42450000D03*
X97750000Y-44075000D03*
X95250000Y-44075000D03*
X97160000Y-50330000D03*
X97160000Y-52830000D03*
X95800000Y-52830000D03*
X95800000Y-50330000D03*
D12*
X91300000Y-47350000D03*
X93500000Y-47350000D03*
X93500000Y-48800000D03*
X91300000Y-48800000D03*
X95380000Y-41130000D03*
X97580000Y-41130000D03*
X91400000Y-39800000D03*
X93600000Y-39800000D03*
D13*
X98000000Y-46250000D03*
X98000000Y-48450000D03*
D12*
X91300000Y-45900000D03*
X93500000Y-45900000D03*
D13*
X99908333Y-48440000D03*
X99908333Y-46240000D03*
D12*
X93570000Y-41130000D03*
X91370000Y-41130000D03*
D13*
X91100000Y-52500000D03*
X91100000Y-50300000D03*
X102590000Y-42750000D03*
X102590000Y-44950000D03*
X104090000Y-44890000D03*
X104090000Y-42690000D03*
X104100000Y-52625000D03*
X104100000Y-50425000D03*
X102875000Y-52640000D03*
X102875000Y-50440000D03*
X98520000Y-52640000D03*
X98520000Y-50440000D03*
X91100000Y-54000000D03*
X91100000Y-56200000D03*
D12*
X98195000Y-54400000D03*
X95995000Y-54400000D03*
X95995000Y-56000000D03*
X98195000Y-56000000D03*
D14*
X99570000Y-39750000D03*
X99570000Y-40400000D03*
X99570000Y-41050000D03*
X102230000Y-41050000D03*
X102230000Y-40400000D03*
X102230000Y-39750000D03*
D15*
X95200000Y-45795000D03*
X95850000Y-45795000D03*
X96500000Y-45795000D03*
X96500000Y-48455000D03*
X95850000Y-48455000D03*
X95200000Y-48455000D03*
D16*
X101225000Y-43400000D03*
X99225000Y-44350000D03*
X99225000Y-42450000D03*
D17*
X101675000Y-50400000D03*
X99775000Y-50400000D03*
X100725000Y-52400000D03*
X93600000Y-52400000D03*
X92650000Y-50400000D03*
X94550000Y-50400000D03*
X100725000Y-54030000D03*
X101675000Y-56030000D03*
X99775000Y-56030000D03*
X92650000Y-56030000D03*
X94550000Y-56030000D03*
X93600000Y-54030000D03*
D18*
X88625000Y-53080000D03*
X88625000Y-42920000D03*
X88625000Y-45460000D03*
X88625000Y-48000000D03*
X88625000Y-50540000D03*
D19*
X92400000Y-48950000D03*
X92400000Y-52500000D03*
X89920000Y-56210000D03*
X92420000Y-54440000D03*
X90170000Y-41140000D03*
X104290000Y-51470000D03*
X104280000Y-53970000D03*
X103400000Y-49380000D03*
X99350000Y-52710000D03*
X94480000Y-51440000D03*
X93600000Y-56020000D03*
X99230000Y-43460000D03*
X92410000Y-45930000D03*
X98960000Y-46810000D03*
X98950000Y-48430000D03*
X92540000Y-41120000D03*
X103610000Y-41120000D03*
X100220000Y-41660000D03*
X103650000Y-43770000D03*
X93770000Y-50420000D03*
X101720000Y-49390000D03*
X100920000Y-47520000D03*
X99280000Y-55080000D03*
X100270000Y-55080000D03*
X94550000Y-45560000D03*
X93505000Y-44425000D03*
D20*
X88625000Y-45460000D02*
X88625000Y-44800000D01*
X89000000Y-44425000D02*
X91925000Y-44425000D01*
X88625000Y-44800000D02*
X89000000Y-44425000D01*
X91275000Y-44425000D02*
X90850000Y-44425000D01*
X91300000Y-45900000D02*
X91275000Y-45875000D01*
X91300000Y-45900000D02*
X91475000Y-45900000D01*
X91925000Y-45450000D02*
X91925000Y-44425000D01*
X91475000Y-45900000D02*
X91925000Y-45450000D01*
X94050000Y-42550000D02*
X94075000Y-42525000D01*
X94625000Y-43450000D02*
X95250000Y-44075000D01*
X91925000Y-44425000D02*
X91925000Y-43900000D01*
X91925000Y-43900000D02*
X92375000Y-43450000D01*
X94020000Y-43450000D02*
X94625000Y-43450000D01*
X92375000Y-43450000D02*
X94020000Y-43450000D01*
X94020000Y-42580000D02*
X94075000Y-42525000D01*
X94020000Y-43450000D02*
X94020000Y-42580000D01*
X91300000Y-45900000D02*
X91470000Y-45900000D01*
X91300000Y-45900000D02*
X91420000Y-45900000D01*
X91420000Y-45900000D02*
X92400000Y-46880000D01*
X92400000Y-46880000D02*
X92400000Y-48950000D01*
X92400000Y-52500000D02*
X92400000Y-53690000D01*
X92740000Y-54030000D02*
X93600000Y-54030000D01*
X92400000Y-53690000D02*
X92740000Y-54030000D01*
X91100000Y-52500000D02*
X92400000Y-52500000D01*
D21*
X91100000Y-56200000D02*
X89930000Y-56200000D01*
X89930000Y-56200000D02*
X89920000Y-56210000D01*
X92420000Y-54350000D02*
X92740000Y-54030000D01*
X92420000Y-54440000D02*
X92420000Y-54350000D01*
D20*
X88625000Y-42920000D02*
X89680000Y-42920000D01*
X89680000Y-42920000D02*
X90075000Y-42525000D01*
X90075000Y-42525000D02*
X93000000Y-42525000D01*
D21*
X93000000Y-42525000D02*
X93000000Y-42010000D01*
X91400000Y-39800000D02*
X91400000Y-40520000D01*
X91400000Y-41025000D02*
X91400000Y-40520000D01*
X90850000Y-41180000D02*
X90850000Y-42525000D01*
D20*
X91360000Y-41140000D02*
X91370000Y-41130000D01*
X90170000Y-41140000D02*
X91360000Y-41140000D01*
X104085000Y-50440000D02*
X104100000Y-50425000D01*
X102875000Y-50440000D02*
X104085000Y-50440000D01*
X104220000Y-54030000D02*
X100725000Y-54030000D01*
X104280000Y-53970000D02*
X104220000Y-54030000D01*
D21*
X91420000Y-40500000D02*
X91400000Y-40520000D01*
X91450000Y-40470000D02*
X91420000Y-40500000D01*
X94540000Y-40470000D02*
X91450000Y-40470000D01*
X95380000Y-41025000D02*
X95095000Y-41025000D01*
X95095000Y-41025000D02*
X94540000Y-40470000D01*
D20*
X104115000Y-50440000D02*
X102875000Y-50440000D01*
X104290000Y-51470000D02*
X104290000Y-50615000D01*
X104290000Y-50615000D02*
X104115000Y-50440000D01*
D21*
X97150000Y-49700000D02*
X97150000Y-50330000D01*
X101470000Y-48480000D02*
X101250000Y-48700000D01*
X102630000Y-48480000D02*
X101470000Y-48480000D01*
X101250000Y-48700000D02*
X101250000Y-49040000D01*
X101250000Y-49040000D02*
X100720000Y-49570000D01*
X97280000Y-49570000D02*
X97150000Y-49700000D01*
X99140000Y-49570000D02*
X97280000Y-49570000D01*
X100720000Y-49570000D02*
X99140000Y-49570000D01*
X99775000Y-53350000D02*
X100725000Y-52400000D01*
X99775000Y-56030000D02*
X99775000Y-53350000D01*
X100725000Y-51755000D02*
X100725000Y-52400000D01*
X100320000Y-51350000D02*
X100725000Y-51755000D01*
X99420000Y-51350000D02*
X100320000Y-51350000D01*
X99160000Y-51090000D02*
X99420000Y-51350000D01*
X99140000Y-49570000D02*
X99160000Y-49590000D01*
X99160000Y-49590000D02*
X99160000Y-51090000D01*
X102590000Y-46540000D02*
X102630000Y-46580000D01*
X102590000Y-44950000D02*
X102590000Y-46540000D01*
X104090000Y-46550000D02*
X104050000Y-46590000D01*
X104090000Y-44890000D02*
X104090000Y-46550000D01*
X104050000Y-48490000D02*
X104050000Y-48720000D01*
X104050000Y-48490000D02*
X104050000Y-48730000D01*
X104050000Y-48730000D02*
X103400000Y-49380000D01*
X98570000Y-52710000D02*
X98500000Y-52640000D01*
X99350000Y-52710000D02*
X98570000Y-52710000D01*
X93600000Y-52400000D02*
X93600000Y-51750000D01*
X93600000Y-51750000D02*
X93910000Y-51440000D01*
X93910000Y-51440000D02*
X94480000Y-51440000D01*
X92650000Y-56030000D02*
X93590000Y-56030000D01*
X93590000Y-56030000D02*
X93600000Y-56020000D01*
X97750000Y-44075000D02*
X96725000Y-44075000D01*
X96725000Y-44075000D02*
X96480000Y-43830000D01*
X96480000Y-43830000D02*
X96480000Y-42680000D01*
X96250000Y-42450000D02*
X95300000Y-42450000D01*
X96480000Y-42680000D02*
X96250000Y-42450000D01*
X97800000Y-42450000D02*
X99225000Y-42450000D01*
X97800000Y-41245000D02*
X97580000Y-41025000D01*
X97800000Y-42450000D02*
X97800000Y-41245000D01*
X95800000Y-50330000D02*
X95800000Y-51330000D01*
X95800000Y-51330000D02*
X95390000Y-51740000D01*
X95390000Y-51740000D02*
X95070000Y-51740000D01*
X95070000Y-51740000D02*
X94720000Y-52090000D01*
X94720000Y-52090000D02*
X94720000Y-53360000D01*
X94720000Y-53360000D02*
X95010000Y-53650000D01*
X95010000Y-53650000D02*
X96910000Y-53650000D01*
X97150000Y-53410000D02*
X97150000Y-52830000D01*
X96910000Y-53650000D02*
X97150000Y-53410000D01*
X98500000Y-51250000D02*
X98500000Y-50440000D01*
X98100000Y-51650000D02*
X98500000Y-51250000D01*
X96170000Y-51650000D02*
X98100000Y-51650000D01*
X95800000Y-52830000D02*
X95800000Y-52020000D01*
X95800000Y-52020000D02*
X96170000Y-51650000D01*
X88625000Y-48000000D02*
X89710000Y-48000000D01*
X90360000Y-47350000D02*
X91300000Y-47350000D01*
X89710000Y-48000000D02*
X90360000Y-47350000D01*
X95850000Y-46780000D02*
X95850000Y-45795000D01*
X95560000Y-47070000D02*
X95850000Y-46780000D01*
X94820000Y-47070000D02*
X95560000Y-47070000D01*
X93500000Y-47350000D02*
X94540000Y-47350000D01*
X94540000Y-47350000D02*
X94820000Y-47070000D01*
X93500000Y-48800000D02*
X94370000Y-48800000D01*
X94370000Y-48800000D02*
X94580000Y-49010000D01*
X94580000Y-49010000D02*
X94580000Y-49310000D01*
X94580000Y-49310000D02*
X94780000Y-49510000D01*
X94780000Y-49510000D02*
X95680000Y-49510000D01*
X95850000Y-49340000D02*
X95850000Y-48455000D01*
X95680000Y-49510000D02*
X95850000Y-49340000D01*
X91140000Y-48800000D02*
X91300000Y-48800000D01*
X90590000Y-49350000D02*
X91140000Y-48800000D01*
X88970000Y-49350000D02*
X90590000Y-49350000D01*
X88625000Y-50540000D02*
X88625000Y-49695000D01*
X88625000Y-49695000D02*
X88970000Y-49350000D01*
X99520000Y-39800000D02*
X99570000Y-39750000D01*
X93600000Y-39800000D02*
X99520000Y-39800000D01*
X97300000Y-46250000D02*
X98000000Y-46250000D01*
X95200000Y-47590000D02*
X95420000Y-47370000D01*
X95200000Y-48455000D02*
X95200000Y-47590000D01*
X95420000Y-47370000D02*
X96850000Y-47370000D01*
X96850000Y-47370000D02*
X97100000Y-47120000D01*
X97100000Y-47120000D02*
X97100000Y-46450000D01*
X97100000Y-46450000D02*
X97300000Y-46250000D01*
X99908333Y-45291667D02*
X99908333Y-46240000D01*
X100400000Y-44800000D02*
X99908333Y-45291667D01*
X100400000Y-43590000D02*
X100400000Y-44800000D01*
X101225000Y-43400000D02*
X100590000Y-43400000D01*
X100590000Y-43400000D02*
X100400000Y-43590000D01*
X99908333Y-47241667D02*
X99908333Y-46240000D01*
X99760000Y-47390000D02*
X99908333Y-47241667D01*
X98140000Y-47390000D02*
X99760000Y-47390000D01*
X98000000Y-48450000D02*
X98000000Y-47530000D01*
X98000000Y-47530000D02*
X98140000Y-47390000D01*
X99225000Y-44350000D02*
X99225000Y-43465000D01*
X99225000Y-43465000D02*
X99230000Y-43460000D01*
X93470000Y-45930000D02*
X93500000Y-45900000D01*
X92410000Y-45930000D02*
X93470000Y-45930000D01*
X96500000Y-45795000D02*
X96945000Y-45795000D01*
X96945000Y-45795000D02*
X97410000Y-45330000D01*
X97410000Y-45330000D02*
X98690000Y-45330000D01*
X98690000Y-45330000D02*
X98950000Y-45590000D01*
X98950000Y-45590000D02*
X98950000Y-46800000D01*
X98950000Y-46800000D02*
X98960000Y-46810000D01*
X99898333Y-48430000D02*
X99908333Y-48440000D01*
X98950000Y-48430000D02*
X99898333Y-48430000D01*
X93570000Y-41130000D02*
X92550000Y-41130000D01*
X92550000Y-41130000D02*
X92540000Y-41120000D01*
X102300000Y-41120000D02*
X102230000Y-41050000D01*
X103610000Y-41120000D02*
X102300000Y-41120000D01*
X100220000Y-41660000D02*
X99710000Y-41660000D01*
X99710000Y-41660000D02*
X99570000Y-41520000D01*
X99570000Y-41520000D02*
X99570000Y-41050000D01*
X91100000Y-50300000D02*
X91100000Y-50160000D01*
X91100000Y-50160000D02*
X91650000Y-49610000D01*
X91650000Y-49610000D02*
X93820000Y-49610000D01*
X94550000Y-50340000D02*
X94550000Y-50400000D01*
X93820000Y-49610000D02*
X94550000Y-50340000D01*
X94550000Y-50400000D02*
X93790000Y-50400000D01*
X93790000Y-50400000D02*
X93770000Y-50420000D01*
X103770000Y-43770000D02*
X103650000Y-43770000D01*
X104090000Y-42690000D02*
X104090000Y-43450000D01*
X104090000Y-43450000D02*
X103770000Y-43770000D01*
X102590000Y-43790000D02*
X102590000Y-42750000D01*
X102280000Y-44100000D02*
X102590000Y-43790000D01*
X101250000Y-44100000D02*
X102280000Y-44100000D01*
X100920000Y-44430000D02*
X101250000Y-44100000D01*
X96865000Y-48455000D02*
X97110000Y-48700000D01*
X96500000Y-48455000D02*
X96865000Y-48455000D01*
X97110000Y-48700000D02*
X97110000Y-49100000D01*
X97110000Y-49100000D02*
X97320000Y-49310000D01*
X97320000Y-49310000D02*
X100550000Y-49310000D01*
X100550000Y-49310000D02*
X100920000Y-48940000D01*
X101675000Y-50400000D02*
X101675000Y-49435000D01*
X101675000Y-49435000D02*
X101720000Y-49390000D01*
X100920000Y-48940000D02*
X100920000Y-47520000D01*
X100920000Y-47520000D02*
X100920000Y-44430000D01*
X101675000Y-51285000D02*
X101675000Y-50400000D01*
X102040000Y-51650000D02*
X101675000Y-51285000D01*
X103280000Y-51650000D02*
X102040000Y-51650000D01*
X104100000Y-52625000D02*
X104100000Y-52470000D01*
X104100000Y-52470000D02*
X103280000Y-51650000D01*
X102060000Y-52640000D02*
X102875000Y-52640000D01*
X100440000Y-50400000D02*
X100690000Y-50650000D01*
X99775000Y-50400000D02*
X100440000Y-50400000D01*
X100690000Y-50650000D02*
X100690000Y-50970000D01*
X100690000Y-50970000D02*
X101780000Y-52060000D01*
X101780000Y-52060000D02*
X101780000Y-52360000D01*
X101780000Y-52360000D02*
X102060000Y-52640000D01*
X92650000Y-51140000D02*
X92370000Y-51420000D01*
X92650000Y-50400000D02*
X92650000Y-51140000D01*
X91100000Y-53860000D02*
X91100000Y-54000000D01*
X92370000Y-51420000D02*
X90830000Y-51420000D01*
X90830000Y-51420000D02*
X90420000Y-51830000D01*
X90420000Y-51830000D02*
X90420000Y-53180000D01*
X90420000Y-53180000D02*
X91100000Y-53860000D01*
D20*
X98145000Y-54400000D02*
X99130000Y-54400000D01*
X99130000Y-54400000D02*
X99280000Y-54550000D01*
X99280000Y-54550000D02*
X99280000Y-55080000D01*
X101675000Y-55335000D02*
X101675000Y-56030000D01*
X101420000Y-55080000D02*
X101675000Y-55335000D01*
X100270000Y-55080000D02*
X101420000Y-55080000D01*
X96800000Y-54400000D02*
X95945000Y-54400000D01*
X97090000Y-54690000D02*
X96800000Y-54400000D01*
X97090000Y-55730000D02*
X97090000Y-54690000D01*
X98200000Y-56000000D02*
X97360000Y-56000000D01*
X97360000Y-56000000D02*
X97090000Y-55730000D01*
X94980000Y-54400000D02*
X95945000Y-54400000D01*
X94350000Y-55030000D02*
X94980000Y-54400000D01*
X89240000Y-55030000D02*
X94350000Y-55030000D01*
X88625000Y-53080000D02*
X88625000Y-54415000D01*
X88625000Y-54415000D02*
X89240000Y-55030000D01*
X94580000Y-56000000D02*
X94550000Y-56030000D01*
X96000000Y-56000000D02*
X94580000Y-56000000D01*
D21*
X102230000Y-39750000D02*
X102230000Y-40400000D01*
X100730000Y-40400000D02*
X99570000Y-40400000D01*
X102230000Y-40400000D02*
X100730000Y-40400000D01*
X95200000Y-44940000D02*
X95200000Y-45795000D01*
X95330000Y-44810000D02*
X95200000Y-44940000D01*
X98470000Y-44810000D02*
X95330000Y-44810000D01*
X98680000Y-45020000D02*
X98470000Y-44810000D01*
X100920000Y-40400000D02*
X100920000Y-42090000D01*
X100730000Y-40400000D02*
X100920000Y-40400000D01*
X100920000Y-42090000D02*
X100090000Y-42920000D01*
X100090000Y-42920000D02*
X100090000Y-44690000D01*
X100090000Y-44690000D02*
X99760000Y-45020000D01*
X99760000Y-45020000D02*
X98680000Y-45020000D01*
D20*
X94075000Y-44895000D02*
X94075000Y-44425000D01*
X93785000Y-44425000D02*
X93505000Y-44425000D01*
X94550000Y-45190000D02*
X93785000Y-44425000D01*
X94550000Y-45560000D02*
X94550000Y-45190000D01*
X93505000Y-44425000D02*
X93000000Y-44425000D01*
M02*
