G04 #@! TF.GenerationSoftware,KiCad,Pcbnew,(5.1.2)-2*
G04 #@! TF.CreationDate,2019-07-22T07:28:34+02:00*
G04 #@! TF.ProjectId,DiscreteOperationalAmplifier,44697363-7265-4746-954f-706572617469,rev?*
G04 #@! TF.SameCoordinates,Original*
G04 #@! TF.FileFunction,Legend,Top*
G04 #@! TF.FilePolarity,Positive*
%FSLAX46Y46*%
G04 Gerber Fmt 4.6, Leading zero omitted, Abs format (unit mm)*
G04 Created by KiCad (PCBNEW (5.1.2)-2) date 2019-07-22 07:28:34*
%MOMM*%
%LPD*%
G04 APERTURE LIST*
%ADD10C,0.150000*%
%ADD11C,0.120000*%
G04 APERTURE END LIST*
D10*
X87541000Y-51423166D02*
X87710333Y-51423166D01*
X87795000Y-51465500D01*
X87879666Y-51550166D01*
X87922000Y-51719500D01*
X87922000Y-52015833D01*
X87879666Y-52185166D01*
X87795000Y-52269833D01*
X87710333Y-52312166D01*
X87541000Y-52312166D01*
X87456333Y-52269833D01*
X87371666Y-52185166D01*
X87329333Y-52015833D01*
X87329333Y-51719500D01*
X87371666Y-51550166D01*
X87456333Y-51465500D01*
X87541000Y-51423166D01*
X88303000Y-51423166D02*
X88303000Y-52142833D01*
X88345333Y-52227500D01*
X88387666Y-52269833D01*
X88472333Y-52312166D01*
X88641666Y-52312166D01*
X88726333Y-52269833D01*
X88768666Y-52227500D01*
X88811000Y-52142833D01*
X88811000Y-51423166D01*
X89107333Y-51423166D02*
X89615333Y-51423166D01*
X89361333Y-52312166D02*
X89361333Y-51423166D01*
X87456333Y-49401000D02*
X88133666Y-49401000D01*
X88556999Y-49739666D02*
X88556999Y-48850666D01*
X88980333Y-49739666D02*
X88980333Y-48850666D01*
X89488333Y-49739666D01*
X89488333Y-48850666D01*
X87456333Y-46828500D02*
X88133666Y-46828500D01*
X87794999Y-47167166D02*
X87794999Y-46489833D01*
X88556999Y-47167166D02*
X88556999Y-46278166D01*
X88980333Y-47167166D02*
X88980333Y-46278166D01*
X89488333Y-47167166D01*
X89488333Y-46278166D01*
X87202333Y-44256000D02*
X87879666Y-44256000D01*
X88726333Y-43705666D02*
X88302999Y-43705666D01*
X88260666Y-44129000D01*
X88302999Y-44086666D01*
X88387666Y-44044333D01*
X88599333Y-44044333D01*
X88683999Y-44086666D01*
X88726333Y-44129000D01*
X88768666Y-44213666D01*
X88768666Y-44425333D01*
X88726333Y-44510000D01*
X88683999Y-44552333D01*
X88599333Y-44594666D01*
X88387666Y-44594666D01*
X88302999Y-44552333D01*
X88260666Y-44510000D01*
X89022666Y-43705666D02*
X89318999Y-44594666D01*
X89615333Y-43705666D01*
X87202333Y-41683500D02*
X87879666Y-41683500D01*
X87540999Y-42022166D02*
X87540999Y-41344833D01*
X88726333Y-41133166D02*
X88302999Y-41133166D01*
X88260666Y-41556500D01*
X88302999Y-41514166D01*
X88387666Y-41471833D01*
X88599333Y-41471833D01*
X88683999Y-41514166D01*
X88726333Y-41556500D01*
X88768666Y-41641166D01*
X88768666Y-41852833D01*
X88726333Y-41937500D01*
X88683999Y-41979833D01*
X88599333Y-42022166D01*
X88387666Y-42022166D01*
X88302999Y-41979833D01*
X88260666Y-41937500D01*
X89022666Y-41133166D02*
X89318999Y-42022166D01*
X89615333Y-41133166D01*
D11*
X93475000Y-43825000D02*
X93475000Y-43125000D01*
X94675000Y-43125000D02*
X94675000Y-43825000D01*
X92400000Y-43825000D02*
X92400000Y-43125000D01*
X93600000Y-43125000D02*
X93600000Y-43825000D01*
X91325000Y-43825000D02*
X91325000Y-43125000D01*
X92525000Y-43125000D02*
X92525000Y-43825000D01*
X91450000Y-43125000D02*
X91450000Y-43825000D01*
X90250000Y-43825000D02*
X90250000Y-43125000D01*
X102030000Y-47880000D02*
X102030000Y-47180000D01*
X103230000Y-47180000D02*
X103230000Y-47880000D01*
X104650000Y-47190000D02*
X104650000Y-47890000D01*
X103450000Y-47890000D02*
X103450000Y-47190000D01*
X94650000Y-41600000D02*
X94650000Y-43300000D01*
X94650000Y-43300000D02*
X97800000Y-43300000D01*
X94650000Y-41600000D02*
X97800000Y-41600000D01*
X94600000Y-43225000D02*
X97750000Y-43225000D01*
X94600000Y-44925000D02*
X97750000Y-44925000D01*
X94600000Y-43225000D02*
X94600000Y-44925000D01*
X96310000Y-53480000D02*
X96310000Y-50330000D01*
X98010000Y-53480000D02*
X98010000Y-50330000D01*
X96310000Y-53480000D02*
X98010000Y-53480000D01*
X94950000Y-53480000D02*
X96650000Y-53480000D01*
X96650000Y-53480000D02*
X96650000Y-50330000D01*
X94950000Y-53480000D02*
X94950000Y-50330000D01*
X92900000Y-48030000D02*
X91900000Y-48030000D01*
X91900000Y-46670000D02*
X92900000Y-46670000D01*
X91900000Y-48120000D02*
X92900000Y-48120000D01*
X92900000Y-49480000D02*
X91900000Y-49480000D01*
X96980000Y-41810000D02*
X95980000Y-41810000D01*
X95980000Y-40450000D02*
X96980000Y-40450000D01*
X93000000Y-40480000D02*
X92000000Y-40480000D01*
X92000000Y-39120000D02*
X93000000Y-39120000D01*
X97320000Y-47850000D02*
X97320000Y-46850000D01*
X98680000Y-46850000D02*
X98680000Y-47850000D01*
X92900000Y-46580000D02*
X91900000Y-46580000D01*
X91900000Y-45220000D02*
X92900000Y-45220000D01*
X100588333Y-46840000D02*
X100588333Y-47840000D01*
X99228333Y-47840000D02*
X99228333Y-46840000D01*
X91970000Y-40450000D02*
X92970000Y-40450000D01*
X92970000Y-41810000D02*
X91970000Y-41810000D01*
X91780000Y-50900000D02*
X91780000Y-51900000D01*
X90420000Y-51900000D02*
X90420000Y-50900000D01*
X101910000Y-44350000D02*
X101910000Y-43350000D01*
X103270000Y-43350000D02*
X103270000Y-44350000D01*
X104770000Y-43290000D02*
X104770000Y-44290000D01*
X103410000Y-44290000D02*
X103410000Y-43290000D01*
X104780000Y-51025000D02*
X104780000Y-52025000D01*
X103420000Y-52025000D02*
X103420000Y-51025000D01*
X103555000Y-51040000D02*
X103555000Y-52040000D01*
X102195000Y-52040000D02*
X102195000Y-51040000D01*
X99200000Y-51040000D02*
X99200000Y-52040000D01*
X97840000Y-52040000D02*
X97840000Y-51040000D01*
X90420000Y-55600000D02*
X90420000Y-54600000D01*
X91780000Y-54600000D02*
X91780000Y-55600000D01*
X96595000Y-53720000D02*
X97595000Y-53720000D01*
X97595000Y-55080000D02*
X96595000Y-55080000D01*
X97595000Y-56680000D02*
X96595000Y-56680000D01*
X96595000Y-55320000D02*
X97595000Y-55320000D01*
X101600000Y-39240000D02*
X99700000Y-39240000D01*
X100200000Y-41560000D02*
X101600000Y-41560000D01*
X97010000Y-47825000D02*
X97010000Y-46425000D01*
X94690000Y-46425000D02*
X94690000Y-48325000D01*
X100985000Y-44980000D02*
X99525000Y-44980000D01*
X100985000Y-41820000D02*
X98825000Y-41820000D01*
X100985000Y-41820000D02*
X100985000Y-42750000D01*
X100985000Y-44980000D02*
X100985000Y-44050000D01*
X99145000Y-52160000D02*
X100075000Y-52160000D01*
X102305000Y-52160000D02*
X101375000Y-52160000D01*
X102305000Y-52160000D02*
X102305000Y-50000000D01*
X99145000Y-52160000D02*
X99145000Y-50700000D01*
X92020000Y-52160000D02*
X92020000Y-50700000D01*
X95180000Y-52160000D02*
X95180000Y-50000000D01*
X95180000Y-52160000D02*
X94250000Y-52160000D01*
X92020000Y-52160000D02*
X92950000Y-52160000D01*
X102305000Y-54270000D02*
X102305000Y-55730000D01*
X99145000Y-54270000D02*
X99145000Y-56430000D01*
X99145000Y-54270000D02*
X100075000Y-54270000D01*
X102305000Y-54270000D02*
X101375000Y-54270000D01*
X95180000Y-54270000D02*
X94250000Y-54270000D01*
X92020000Y-54270000D02*
X92950000Y-54270000D01*
X92020000Y-54270000D02*
X92020000Y-56430000D01*
X95180000Y-54270000D02*
X95180000Y-55730000D01*
M02*
