G04 #@! TF.GenerationSoftware,KiCad,Pcbnew,(5.1.2)-2*
G04 #@! TF.CreationDate,2019-07-22T07:28:34+02:00*
G04 #@! TF.ProjectId,DiscreteOperationalAmplifier,44697363-7265-4746-954f-706572617469,rev?*
G04 #@! TF.SameCoordinates,Original*
G04 #@! TF.FileFunction,Copper,L2,Bot*
G04 #@! TF.FilePolarity,Positive*
%FSLAX46Y46*%
G04 Gerber Fmt 4.6, Leading zero omitted, Abs format (unit mm)*
G04 Created by KiCad (PCBNEW (5.1.2)-2) date 2019-07-22 07:28:34*
%MOMM*%
%LPD*%
G04 APERTURE LIST*
%ADD10R,3.150000X1.000000*%
%ADD11C,0.600000*%
%ADD12C,0.254000*%
%ADD13C,0.152400*%
G04 APERTURE END LIST*
D10*
X88625000Y-50545000D03*
X88625000Y-48005000D03*
X88625000Y-45465000D03*
X88625000Y-42925000D03*
X88625000Y-53085000D03*
D11*
X92400000Y-48950000D03*
X92400000Y-52500000D03*
X89920000Y-56210000D03*
X92420000Y-54440000D03*
X90170000Y-41140000D03*
X104290000Y-51470000D03*
X104280000Y-53970000D03*
X103400000Y-49380000D03*
X99350000Y-52710000D03*
X94480000Y-51440000D03*
X93600000Y-56020000D03*
X99230000Y-43460000D03*
X92410000Y-45930000D03*
X98960000Y-46810000D03*
X98950000Y-48430000D03*
X92540000Y-41120000D03*
X103610000Y-41120000D03*
X100220000Y-41660000D03*
X103650000Y-43770000D03*
X93770000Y-50420000D03*
X101720000Y-49390000D03*
X100920000Y-47520000D03*
X99280000Y-55080000D03*
X100270000Y-55080000D03*
X94550000Y-45560000D03*
X93505000Y-44425000D03*
D12*
X92400000Y-52500000D02*
X92400000Y-48950000D01*
D13*
X89920000Y-56210000D02*
X91840000Y-56210000D01*
X91840000Y-56210000D02*
X91980000Y-56210000D01*
X91980000Y-56210000D02*
X92420000Y-55770000D01*
X92420000Y-55770000D02*
X92420000Y-54440000D01*
D12*
X91750000Y-41140000D02*
X90170000Y-41140000D01*
X104290000Y-42670000D02*
X102740000Y-41120000D01*
X104290000Y-51470000D02*
X104290000Y-42670000D01*
X102740000Y-41120000D02*
X93320000Y-41120000D01*
X93320000Y-41120000D02*
X92730000Y-41710000D01*
X92730000Y-41710000D02*
X92320000Y-41710000D01*
X92320000Y-41710000D02*
X91750000Y-41140000D01*
X104290000Y-53960000D02*
X104290000Y-51470000D01*
X104280000Y-53970000D02*
X104290000Y-53960000D01*
D13*
X103400000Y-52220000D02*
X103400000Y-49380000D01*
X94480000Y-51440000D02*
X98880000Y-51440000D01*
X99350000Y-51910000D02*
X99350000Y-52710000D01*
X98880000Y-51440000D02*
X99350000Y-51910000D01*
X93600000Y-56020000D02*
X93610000Y-56030000D01*
X93610000Y-56030000D02*
X102960000Y-56030000D01*
X102960000Y-56030000D02*
X103400000Y-55590000D01*
X103390000Y-52710000D02*
X103400000Y-52700000D01*
X103400000Y-52560000D02*
X103400000Y-52220000D01*
X103400000Y-52700000D02*
X103400000Y-52560000D01*
X103290000Y-52710000D02*
X103390000Y-52710000D01*
X99350000Y-52710000D02*
X103290000Y-52710000D01*
X103290000Y-52720000D02*
X103400000Y-52830000D01*
X103290000Y-52710000D02*
X103290000Y-52720000D01*
X103400000Y-55590000D02*
X103400000Y-52830000D01*
X103400000Y-52830000D02*
X103400000Y-52700000D01*
X103290000Y-52670000D02*
X103400000Y-52560000D01*
X103290000Y-52710000D02*
X103290000Y-52670000D01*
X99230000Y-43460000D02*
X99220000Y-43450000D01*
X99220000Y-43450000D02*
X92930000Y-43450000D01*
X92930000Y-43450000D02*
X92410000Y-43970000D01*
X92410000Y-43970000D02*
X92410000Y-45930000D01*
X98960000Y-48420000D02*
X98960000Y-46810000D01*
X98950000Y-48430000D02*
X98960000Y-48420000D01*
X103060000Y-40570000D02*
X103610000Y-41120000D01*
X92540000Y-41120000D02*
X93090000Y-40570000D01*
X93090000Y-40570000D02*
X103060000Y-40570000D01*
X100230000Y-41650000D02*
X100220000Y-41660000D01*
X102660000Y-41650000D02*
X100230000Y-41650000D01*
X103650000Y-42640000D02*
X102660000Y-41650000D01*
X103650000Y-43580000D02*
X103650000Y-42640000D01*
X103650000Y-48410000D02*
X103650000Y-43770000D01*
X102310000Y-50420000D02*
X102630000Y-50100000D01*
X93770000Y-50420000D02*
X102310000Y-50420000D01*
X102630000Y-50100000D02*
X102630000Y-48930000D01*
X102630000Y-48930000D02*
X102880000Y-48680000D01*
X102880000Y-48680000D02*
X103380000Y-48680000D01*
X103380000Y-48680000D02*
X103650000Y-48410000D01*
X101280000Y-47520000D02*
X100920000Y-47520000D01*
X101510000Y-47520000D02*
X101280000Y-47520000D01*
X101720000Y-49390000D02*
X101720000Y-47730000D01*
X101720000Y-47730000D02*
X101510000Y-47520000D01*
D12*
X100270000Y-55080000D02*
X99280000Y-55080000D01*
D13*
G36*
X103787350Y-39477529D02*
G01*
X103798054Y-39502993D01*
X103808377Y-39528543D01*
X103810372Y-39532296D01*
X103903197Y-39703972D01*
X103918613Y-39726828D01*
X103933732Y-39749932D01*
X103936418Y-39753225D01*
X104060822Y-39903603D01*
X104080420Y-39923065D01*
X104099702Y-39942755D01*
X104102976Y-39945464D01*
X104254218Y-40068814D01*
X104277208Y-40084088D01*
X104299963Y-40099669D01*
X104303701Y-40101690D01*
X104476023Y-40193316D01*
X104501593Y-40203855D01*
X104526889Y-40214697D01*
X104530939Y-40215951D01*
X104530949Y-40215955D01*
X104530959Y-40215957D01*
X104695601Y-40265665D01*
X104695601Y-42641926D01*
X104690519Y-42590332D01*
X104684440Y-42570290D01*
X104667281Y-42513725D01*
X104661686Y-42503258D01*
X104629544Y-42443124D01*
X104608717Y-42417746D01*
X104591482Y-42396745D01*
X104591477Y-42396740D01*
X104578758Y-42381242D01*
X104563260Y-42368523D01*
X103844671Y-41649934D01*
X103884449Y-41633457D01*
X103979346Y-41570049D01*
X104060049Y-41489346D01*
X104123457Y-41394449D01*
X104167134Y-41289005D01*
X104189400Y-41177066D01*
X104189400Y-41062934D01*
X104167134Y-40950995D01*
X104123457Y-40845551D01*
X104060049Y-40750654D01*
X103979346Y-40669951D01*
X103884449Y-40606543D01*
X103779005Y-40562866D01*
X103667066Y-40540600D01*
X103552934Y-40540600D01*
X103536719Y-40543825D01*
X103323798Y-40330905D01*
X103312663Y-40317337D01*
X103258516Y-40272899D01*
X103196740Y-40239879D01*
X103129710Y-40219546D01*
X103077463Y-40214400D01*
X103077455Y-40214400D01*
X103060000Y-40212681D01*
X103042545Y-40214400D01*
X93107452Y-40214400D01*
X93089999Y-40212681D01*
X93072546Y-40214400D01*
X93072537Y-40214400D01*
X93020290Y-40219546D01*
X92953260Y-40239879D01*
X92891484Y-40272899D01*
X92891482Y-40272900D01*
X92891483Y-40272900D01*
X92850900Y-40306205D01*
X92850895Y-40306210D01*
X92837337Y-40317337D01*
X92826210Y-40330895D01*
X92613281Y-40543825D01*
X92597066Y-40540600D01*
X92482934Y-40540600D01*
X92370995Y-40562866D01*
X92265551Y-40606543D01*
X92170654Y-40669951D01*
X92089951Y-40750654D01*
X92028413Y-40842752D01*
X91976876Y-40800456D01*
X91906275Y-40762719D01*
X91829668Y-40739481D01*
X91769960Y-40733600D01*
X91769953Y-40733600D01*
X91750000Y-40731635D01*
X91730047Y-40733600D01*
X90582995Y-40733600D01*
X90539346Y-40689951D01*
X90444449Y-40626543D01*
X90339005Y-40582866D01*
X90227066Y-40560600D01*
X90112934Y-40560600D01*
X90000995Y-40582866D01*
X89895551Y-40626543D01*
X89800654Y-40689951D01*
X89719951Y-40770654D01*
X89656543Y-40865551D01*
X89612866Y-40970995D01*
X89590600Y-41082934D01*
X89590600Y-41197066D01*
X89612866Y-41309005D01*
X89656543Y-41414449D01*
X89719951Y-41509346D01*
X89800654Y-41590049D01*
X89895551Y-41653457D01*
X90000995Y-41697134D01*
X90112934Y-41719400D01*
X90227066Y-41719400D01*
X90339005Y-41697134D01*
X90444449Y-41653457D01*
X90539346Y-41590049D01*
X90582995Y-41546400D01*
X91581664Y-41546400D01*
X92018522Y-41983259D01*
X92031242Y-41998758D01*
X92046740Y-42011477D01*
X92046745Y-42011482D01*
X92053858Y-42017319D01*
X92093124Y-42049544D01*
X92163725Y-42087281D01*
X92240331Y-42110519D01*
X92247604Y-42111235D01*
X92300040Y-42116400D01*
X92300047Y-42116400D01*
X92320000Y-42118365D01*
X92339953Y-42116400D01*
X92710047Y-42116400D01*
X92730000Y-42118365D01*
X92749953Y-42116400D01*
X92749960Y-42116400D01*
X92809668Y-42110519D01*
X92886275Y-42087281D01*
X92956876Y-42049544D01*
X93018758Y-41998758D01*
X93031482Y-41983254D01*
X93488337Y-41526400D01*
X99655824Y-41526400D01*
X99640600Y-41602934D01*
X99640600Y-41717066D01*
X99662866Y-41829005D01*
X99706543Y-41934449D01*
X99769951Y-42029346D01*
X99850654Y-42110049D01*
X99945551Y-42173457D01*
X100050995Y-42217134D01*
X100162934Y-42239400D01*
X100277066Y-42239400D01*
X100389005Y-42217134D01*
X100494449Y-42173457D01*
X100589346Y-42110049D01*
X100670049Y-42029346D01*
X100685916Y-42005600D01*
X102512707Y-42005600D01*
X103294401Y-42787296D01*
X103294400Y-43310766D01*
X103280654Y-43319951D01*
X103199951Y-43400654D01*
X103136543Y-43495551D01*
X103092866Y-43600995D01*
X103070600Y-43712934D01*
X103070600Y-43827066D01*
X103092866Y-43939005D01*
X103136543Y-44044449D01*
X103199951Y-44139346D01*
X103280654Y-44220049D01*
X103294401Y-44229234D01*
X103294400Y-48262706D01*
X103232707Y-48324400D01*
X102897452Y-48324400D01*
X102879999Y-48322681D01*
X102862546Y-48324400D01*
X102862537Y-48324400D01*
X102810290Y-48329546D01*
X102743260Y-48349879D01*
X102681484Y-48382899D01*
X102681482Y-48382900D01*
X102681483Y-48382900D01*
X102640900Y-48416205D01*
X102640895Y-48416210D01*
X102627337Y-48427337D01*
X102616210Y-48440896D01*
X102390900Y-48666207D01*
X102377338Y-48677337D01*
X102332900Y-48731484D01*
X102321587Y-48752650D01*
X102299880Y-48793259D01*
X102279546Y-48860290D01*
X102272681Y-48930000D01*
X102274401Y-48947465D01*
X102274401Y-49214396D01*
X102233457Y-49115551D01*
X102170049Y-49020654D01*
X102089346Y-48939951D01*
X102075600Y-48930766D01*
X102075600Y-47747455D01*
X102077319Y-47730000D01*
X102075600Y-47712544D01*
X102075600Y-47712537D01*
X102070454Y-47660290D01*
X102069378Y-47656741D01*
X102064286Y-47639956D01*
X102050121Y-47593260D01*
X102017101Y-47531484D01*
X101972663Y-47477337D01*
X101959094Y-47466201D01*
X101773799Y-47280906D01*
X101762663Y-47267337D01*
X101708516Y-47222899D01*
X101646740Y-47189879D01*
X101579710Y-47169546D01*
X101527463Y-47164400D01*
X101527455Y-47164400D01*
X101510000Y-47162681D01*
X101492545Y-47164400D01*
X101379234Y-47164400D01*
X101370049Y-47150654D01*
X101289346Y-47069951D01*
X101194449Y-47006543D01*
X101089005Y-46962866D01*
X100977066Y-46940600D01*
X100862934Y-46940600D01*
X100750995Y-46962866D01*
X100645551Y-47006543D01*
X100550654Y-47069951D01*
X100469951Y-47150654D01*
X100406543Y-47245551D01*
X100362866Y-47350995D01*
X100340600Y-47462934D01*
X100340600Y-47577066D01*
X100362866Y-47689005D01*
X100406543Y-47794449D01*
X100469951Y-47889346D01*
X100550654Y-47970049D01*
X100645551Y-48033457D01*
X100750995Y-48077134D01*
X100862934Y-48099400D01*
X100977066Y-48099400D01*
X101089005Y-48077134D01*
X101194449Y-48033457D01*
X101289346Y-47970049D01*
X101364401Y-47894994D01*
X101364400Y-48930766D01*
X101350654Y-48939951D01*
X101269951Y-49020654D01*
X101206543Y-49115551D01*
X101162866Y-49220995D01*
X101140600Y-49332934D01*
X101140600Y-49447066D01*
X101162866Y-49559005D01*
X101206543Y-49664449D01*
X101269951Y-49759346D01*
X101350654Y-49840049D01*
X101445551Y-49903457D01*
X101550995Y-49947134D01*
X101662934Y-49969400D01*
X101777066Y-49969400D01*
X101889005Y-49947134D01*
X101994449Y-49903457D01*
X102089346Y-49840049D01*
X102170049Y-49759346D01*
X102233457Y-49664449D01*
X102274400Y-49565604D01*
X102274400Y-49952706D01*
X102162706Y-50064400D01*
X94229234Y-50064400D01*
X94220049Y-50050654D01*
X94139346Y-49969951D01*
X94044449Y-49906543D01*
X93939005Y-49862866D01*
X93827066Y-49840600D01*
X93712934Y-49840600D01*
X93600995Y-49862866D01*
X93495551Y-49906543D01*
X93400654Y-49969951D01*
X93319951Y-50050654D01*
X93256543Y-50145551D01*
X93212866Y-50250995D01*
X93190600Y-50362934D01*
X93190600Y-50477066D01*
X93212866Y-50589005D01*
X93256543Y-50694449D01*
X93319951Y-50789346D01*
X93400654Y-50870049D01*
X93495551Y-50933457D01*
X93600995Y-50977134D01*
X93712934Y-50999400D01*
X93827066Y-50999400D01*
X93939005Y-50977134D01*
X94044449Y-50933457D01*
X94139346Y-50870049D01*
X94220049Y-50789346D01*
X94229234Y-50775600D01*
X102292545Y-50775600D01*
X102310000Y-50777319D01*
X102327455Y-50775600D01*
X102327463Y-50775600D01*
X102379710Y-50770454D01*
X102446740Y-50750121D01*
X102508516Y-50717101D01*
X102562663Y-50672663D01*
X102573798Y-50659095D01*
X102869109Y-50363786D01*
X102882662Y-50352663D01*
X102893785Y-50339110D01*
X102893795Y-50339100D01*
X102927100Y-50298517D01*
X102927102Y-50298515D01*
X102960121Y-50236740D01*
X102980454Y-50169710D01*
X102985600Y-50117463D01*
X102985600Y-50117454D01*
X102987319Y-50100001D01*
X102985600Y-50082548D01*
X102985600Y-49784995D01*
X103030654Y-49830049D01*
X103044401Y-49839234D01*
X103044400Y-52202537D01*
X103044400Y-52354400D01*
X99809234Y-52354400D01*
X99800049Y-52340654D01*
X99719346Y-52259951D01*
X99705600Y-52250766D01*
X99705600Y-51927452D01*
X99707319Y-51909999D01*
X99705600Y-51892546D01*
X99705600Y-51892537D01*
X99700454Y-51840290D01*
X99680121Y-51773260D01*
X99647101Y-51711484D01*
X99643933Y-51707624D01*
X99613795Y-51670900D01*
X99613785Y-51670890D01*
X99602662Y-51657337D01*
X99589109Y-51646214D01*
X99143798Y-51200905D01*
X99132663Y-51187337D01*
X99078516Y-51142899D01*
X99016740Y-51109879D01*
X98949710Y-51089546D01*
X98897463Y-51084400D01*
X98897455Y-51084400D01*
X98880000Y-51082681D01*
X98862545Y-51084400D01*
X94939234Y-51084400D01*
X94930049Y-51070654D01*
X94849346Y-50989951D01*
X94754449Y-50926543D01*
X94649005Y-50882866D01*
X94537066Y-50860600D01*
X94422934Y-50860600D01*
X94310995Y-50882866D01*
X94205551Y-50926543D01*
X94110654Y-50989951D01*
X94029951Y-51070654D01*
X93966543Y-51165551D01*
X93922866Y-51270995D01*
X93900600Y-51382934D01*
X93900600Y-51497066D01*
X93922866Y-51609005D01*
X93966543Y-51714449D01*
X94029951Y-51809346D01*
X94110654Y-51890049D01*
X94205551Y-51953457D01*
X94310995Y-51997134D01*
X94422934Y-52019400D01*
X94537066Y-52019400D01*
X94649005Y-51997134D01*
X94754449Y-51953457D01*
X94849346Y-51890049D01*
X94930049Y-51809346D01*
X94939234Y-51795600D01*
X98732707Y-51795600D01*
X98994400Y-52057295D01*
X98994400Y-52250766D01*
X98980654Y-52259951D01*
X98899951Y-52340654D01*
X98836543Y-52435551D01*
X98792866Y-52540995D01*
X98770600Y-52652934D01*
X98770600Y-52767066D01*
X98792866Y-52879005D01*
X98836543Y-52984449D01*
X98899951Y-53079346D01*
X98980654Y-53160049D01*
X99075551Y-53223457D01*
X99180995Y-53267134D01*
X99292934Y-53289400D01*
X99407066Y-53289400D01*
X99519005Y-53267134D01*
X99624449Y-53223457D01*
X99719346Y-53160049D01*
X99800049Y-53079346D01*
X99809234Y-53065600D01*
X103044401Y-53065600D01*
X103044400Y-55442706D01*
X102812707Y-55674400D01*
X94065916Y-55674400D01*
X94050049Y-55650654D01*
X93969346Y-55569951D01*
X93874449Y-55506543D01*
X93769005Y-55462866D01*
X93657066Y-55440600D01*
X93542934Y-55440600D01*
X93430995Y-55462866D01*
X93325551Y-55506543D01*
X93230654Y-55569951D01*
X93149951Y-55650654D01*
X93086543Y-55745551D01*
X93042866Y-55850995D01*
X93020600Y-55962934D01*
X93020600Y-56077066D01*
X93042866Y-56189005D01*
X93086543Y-56294449D01*
X93149951Y-56389346D01*
X93230654Y-56470049D01*
X93325551Y-56533457D01*
X93430995Y-56577134D01*
X93542934Y-56599400D01*
X93657066Y-56599400D01*
X93769005Y-56577134D01*
X93874449Y-56533457D01*
X93969346Y-56470049D01*
X94050049Y-56389346D01*
X94052552Y-56385600D01*
X102942545Y-56385600D01*
X102960000Y-56387319D01*
X102977455Y-56385600D01*
X102977463Y-56385600D01*
X103029710Y-56380454D01*
X103096740Y-56360121D01*
X103158516Y-56327101D01*
X103212663Y-56282663D01*
X103223799Y-56269094D01*
X103639104Y-55853790D01*
X103652662Y-55842663D01*
X103663790Y-55829104D01*
X103663795Y-55829099D01*
X103681411Y-55807634D01*
X103697101Y-55788516D01*
X103730121Y-55726740D01*
X103750454Y-55659710D01*
X103755600Y-55607463D01*
X103755600Y-55607456D01*
X103757319Y-55590000D01*
X103755600Y-55572545D01*
X103755600Y-54218031D01*
X103766543Y-54244449D01*
X103829951Y-54339346D01*
X103910654Y-54420049D01*
X104005551Y-54483457D01*
X104110995Y-54527134D01*
X104222934Y-54549400D01*
X104337066Y-54549400D01*
X104449005Y-54527134D01*
X104554449Y-54483457D01*
X104649346Y-54420049D01*
X104695600Y-54373795D01*
X104695600Y-55733758D01*
X104522471Y-55787350D01*
X104497018Y-55798049D01*
X104471457Y-55808377D01*
X104467704Y-55810372D01*
X104296027Y-55903197D01*
X104273139Y-55918635D01*
X104250068Y-55933732D01*
X104246774Y-55936418D01*
X104096397Y-56060822D01*
X104076935Y-56080420D01*
X104057245Y-56099702D01*
X104054536Y-56102976D01*
X103931186Y-56254218D01*
X103915906Y-56277216D01*
X103900332Y-56299962D01*
X103898310Y-56303701D01*
X103806685Y-56476023D01*
X103796176Y-56501520D01*
X103785303Y-56526889D01*
X103784046Y-56530949D01*
X103734335Y-56695600D01*
X90236140Y-56695600D01*
X90289346Y-56660049D01*
X90370049Y-56579346D01*
X90379234Y-56565600D01*
X91962545Y-56565600D01*
X91980000Y-56567319D01*
X91997455Y-56565600D01*
X91997463Y-56565600D01*
X92049710Y-56560454D01*
X92116740Y-56540121D01*
X92178516Y-56507101D01*
X92232663Y-56462663D01*
X92243799Y-56449094D01*
X92659104Y-56033790D01*
X92672662Y-56022663D01*
X92683790Y-56009104D01*
X92683795Y-56009099D01*
X92703210Y-55985441D01*
X92717101Y-55968516D01*
X92750121Y-55906740D01*
X92765174Y-55857116D01*
X92770454Y-55839711D01*
X92771604Y-55828036D01*
X92775600Y-55787463D01*
X92775600Y-55787456D01*
X92777319Y-55770000D01*
X92775600Y-55752545D01*
X92775600Y-55022934D01*
X98700600Y-55022934D01*
X98700600Y-55137066D01*
X98722866Y-55249005D01*
X98766543Y-55354449D01*
X98829951Y-55449346D01*
X98910654Y-55530049D01*
X99005551Y-55593457D01*
X99110995Y-55637134D01*
X99222934Y-55659400D01*
X99337066Y-55659400D01*
X99449005Y-55637134D01*
X99554449Y-55593457D01*
X99649346Y-55530049D01*
X99692995Y-55486400D01*
X99857005Y-55486400D01*
X99900654Y-55530049D01*
X99995551Y-55593457D01*
X100100995Y-55637134D01*
X100212934Y-55659400D01*
X100327066Y-55659400D01*
X100439005Y-55637134D01*
X100544449Y-55593457D01*
X100639346Y-55530049D01*
X100720049Y-55449346D01*
X100783457Y-55354449D01*
X100827134Y-55249005D01*
X100849400Y-55137066D01*
X100849400Y-55022934D01*
X100827134Y-54910995D01*
X100783457Y-54805551D01*
X100720049Y-54710654D01*
X100639346Y-54629951D01*
X100544449Y-54566543D01*
X100439005Y-54522866D01*
X100327066Y-54500600D01*
X100212934Y-54500600D01*
X100100995Y-54522866D01*
X99995551Y-54566543D01*
X99900654Y-54629951D01*
X99857005Y-54673600D01*
X99692995Y-54673600D01*
X99649346Y-54629951D01*
X99554449Y-54566543D01*
X99449005Y-54522866D01*
X99337066Y-54500600D01*
X99222934Y-54500600D01*
X99110995Y-54522866D01*
X99005551Y-54566543D01*
X98910654Y-54629951D01*
X98829951Y-54710654D01*
X98766543Y-54805551D01*
X98722866Y-54910995D01*
X98700600Y-55022934D01*
X92775600Y-55022934D01*
X92775600Y-54899234D01*
X92789346Y-54890049D01*
X92870049Y-54809346D01*
X92933457Y-54714449D01*
X92977134Y-54609005D01*
X92999400Y-54497066D01*
X92999400Y-54382934D01*
X92977134Y-54270995D01*
X92933457Y-54165551D01*
X92870049Y-54070654D01*
X92789346Y-53989951D01*
X92694449Y-53926543D01*
X92589005Y-53882866D01*
X92477066Y-53860600D01*
X92362934Y-53860600D01*
X92250995Y-53882866D01*
X92145551Y-53926543D01*
X92050654Y-53989951D01*
X91969951Y-54070654D01*
X91906543Y-54165551D01*
X91862866Y-54270995D01*
X91840600Y-54382934D01*
X91840600Y-54497066D01*
X91862866Y-54609005D01*
X91906543Y-54714449D01*
X91969951Y-54809346D01*
X92050654Y-54890049D01*
X92064401Y-54899234D01*
X92064400Y-55622706D01*
X91832707Y-55854400D01*
X90379234Y-55854400D01*
X90370049Y-55840654D01*
X90289346Y-55759951D01*
X90194449Y-55696543D01*
X90089005Y-55652866D01*
X89977066Y-55630600D01*
X89862934Y-55630600D01*
X89750995Y-55652866D01*
X89645551Y-55696543D01*
X89550654Y-55759951D01*
X89469951Y-55840654D01*
X89406543Y-55935551D01*
X89362866Y-56040995D01*
X89340600Y-56152934D01*
X89340600Y-56267066D01*
X89362866Y-56379005D01*
X89406543Y-56484449D01*
X89469951Y-56579346D01*
X89550654Y-56660049D01*
X89603860Y-56695600D01*
X88266242Y-56695600D01*
X88212650Y-56522471D01*
X88201951Y-56497018D01*
X88191623Y-56471457D01*
X88189628Y-56467704D01*
X88096803Y-56296027D01*
X88081365Y-56273139D01*
X88066268Y-56250068D01*
X88063582Y-56246774D01*
X87939178Y-56096397D01*
X87919580Y-56076935D01*
X87900298Y-56057245D01*
X87897024Y-56054536D01*
X87745782Y-55931186D01*
X87722784Y-55915906D01*
X87700038Y-55900332D01*
X87696299Y-55898310D01*
X87523977Y-55806685D01*
X87498480Y-55796176D01*
X87473111Y-55785303D01*
X87469051Y-55784046D01*
X87304400Y-55734335D01*
X87304400Y-53916489D01*
X88364650Y-53915200D01*
X88447200Y-53832650D01*
X88447200Y-53262800D01*
X88802800Y-53262800D01*
X88802800Y-53832650D01*
X88885350Y-53915200D01*
X90200000Y-53916798D01*
X90264731Y-53910423D01*
X90326974Y-53891541D01*
X90384337Y-53860880D01*
X90434617Y-53819617D01*
X90475880Y-53769337D01*
X90506541Y-53711974D01*
X90525423Y-53649731D01*
X90531798Y-53585000D01*
X90530200Y-53345350D01*
X90447650Y-53262800D01*
X88802800Y-53262800D01*
X88447200Y-53262800D01*
X88427200Y-53262800D01*
X88427200Y-52907200D01*
X88447200Y-52907200D01*
X88447200Y-52337350D01*
X88802800Y-52337350D01*
X88802800Y-52907200D01*
X90447650Y-52907200D01*
X90530200Y-52824650D01*
X90531798Y-52585000D01*
X90525423Y-52520269D01*
X90506541Y-52458026D01*
X90475880Y-52400663D01*
X90434617Y-52350383D01*
X90384337Y-52309120D01*
X90326974Y-52278459D01*
X90264731Y-52259577D01*
X90200000Y-52253202D01*
X88885350Y-52254800D01*
X88802800Y-52337350D01*
X88447200Y-52337350D01*
X88364650Y-52254800D01*
X87304400Y-52253511D01*
X87304400Y-51376489D01*
X88364650Y-51375200D01*
X88447200Y-51292650D01*
X88447200Y-50722800D01*
X88802800Y-50722800D01*
X88802800Y-51292650D01*
X88885350Y-51375200D01*
X90200000Y-51376798D01*
X90264731Y-51370423D01*
X90326974Y-51351541D01*
X90384337Y-51320880D01*
X90434617Y-51279617D01*
X90475880Y-51229337D01*
X90506541Y-51171974D01*
X90525423Y-51109731D01*
X90531798Y-51045000D01*
X90530200Y-50805350D01*
X90447650Y-50722800D01*
X88802800Y-50722800D01*
X88447200Y-50722800D01*
X88427200Y-50722800D01*
X88427200Y-50367200D01*
X88447200Y-50367200D01*
X88447200Y-49797350D01*
X88802800Y-49797350D01*
X88802800Y-50367200D01*
X90447650Y-50367200D01*
X90530200Y-50284650D01*
X90531798Y-50045000D01*
X90525423Y-49980269D01*
X90506541Y-49918026D01*
X90475880Y-49860663D01*
X90434617Y-49810383D01*
X90384337Y-49769120D01*
X90326974Y-49738459D01*
X90264731Y-49719577D01*
X90200000Y-49713202D01*
X88885350Y-49714800D01*
X88802800Y-49797350D01*
X88447200Y-49797350D01*
X88364650Y-49714800D01*
X87304400Y-49713511D01*
X87304400Y-48892934D01*
X91820600Y-48892934D01*
X91820600Y-49007066D01*
X91842866Y-49119005D01*
X91886543Y-49224449D01*
X91949951Y-49319346D01*
X91993601Y-49362996D01*
X91993600Y-52087005D01*
X91949951Y-52130654D01*
X91886543Y-52225551D01*
X91842866Y-52330995D01*
X91820600Y-52442934D01*
X91820600Y-52557066D01*
X91842866Y-52669005D01*
X91886543Y-52774449D01*
X91949951Y-52869346D01*
X92030654Y-52950049D01*
X92125551Y-53013457D01*
X92230995Y-53057134D01*
X92342934Y-53079400D01*
X92457066Y-53079400D01*
X92569005Y-53057134D01*
X92674449Y-53013457D01*
X92769346Y-52950049D01*
X92850049Y-52869346D01*
X92913457Y-52774449D01*
X92957134Y-52669005D01*
X92979400Y-52557066D01*
X92979400Y-52442934D01*
X92957134Y-52330995D01*
X92913457Y-52225551D01*
X92850049Y-52130654D01*
X92806400Y-52087005D01*
X92806400Y-49362995D01*
X92850049Y-49319346D01*
X92913457Y-49224449D01*
X92957134Y-49119005D01*
X92979400Y-49007066D01*
X92979400Y-48892934D01*
X92957134Y-48780995D01*
X92913457Y-48675551D01*
X92850049Y-48580654D01*
X92769346Y-48499951D01*
X92674449Y-48436543D01*
X92569005Y-48392866D01*
X92468800Y-48372934D01*
X98370600Y-48372934D01*
X98370600Y-48487066D01*
X98392866Y-48599005D01*
X98436543Y-48704449D01*
X98499951Y-48799346D01*
X98580654Y-48880049D01*
X98675551Y-48943457D01*
X98780995Y-48987134D01*
X98892934Y-49009400D01*
X99007066Y-49009400D01*
X99119005Y-48987134D01*
X99224449Y-48943457D01*
X99319346Y-48880049D01*
X99400049Y-48799346D01*
X99463457Y-48704449D01*
X99507134Y-48599005D01*
X99529400Y-48487066D01*
X99529400Y-48372934D01*
X99507134Y-48260995D01*
X99463457Y-48155551D01*
X99400049Y-48060654D01*
X99319346Y-47979951D01*
X99315600Y-47977448D01*
X99315600Y-47269234D01*
X99329346Y-47260049D01*
X99410049Y-47179346D01*
X99473457Y-47084449D01*
X99517134Y-46979005D01*
X99539400Y-46867066D01*
X99539400Y-46752934D01*
X99517134Y-46640995D01*
X99473457Y-46535551D01*
X99410049Y-46440654D01*
X99329346Y-46359951D01*
X99234449Y-46296543D01*
X99129005Y-46252866D01*
X99017066Y-46230600D01*
X98902934Y-46230600D01*
X98790995Y-46252866D01*
X98685551Y-46296543D01*
X98590654Y-46359951D01*
X98509951Y-46440654D01*
X98446543Y-46535551D01*
X98402866Y-46640995D01*
X98380600Y-46752934D01*
X98380600Y-46867066D01*
X98402866Y-46979005D01*
X98446543Y-47084449D01*
X98509951Y-47179346D01*
X98590654Y-47260049D01*
X98604401Y-47269234D01*
X98604400Y-47964084D01*
X98580654Y-47979951D01*
X98499951Y-48060654D01*
X98436543Y-48155551D01*
X98392866Y-48260995D01*
X98370600Y-48372934D01*
X92468800Y-48372934D01*
X92457066Y-48370600D01*
X92342934Y-48370600D01*
X92230995Y-48392866D01*
X92125551Y-48436543D01*
X92030654Y-48499951D01*
X91949951Y-48580654D01*
X91886543Y-48675551D01*
X91842866Y-48780995D01*
X91820600Y-48892934D01*
X87304400Y-48892934D01*
X87304400Y-48836489D01*
X88364650Y-48835200D01*
X88447200Y-48752650D01*
X88447200Y-48182800D01*
X88802800Y-48182800D01*
X88802800Y-48752650D01*
X88885350Y-48835200D01*
X90200000Y-48836798D01*
X90264731Y-48830423D01*
X90326974Y-48811541D01*
X90384337Y-48780880D01*
X90434617Y-48739617D01*
X90475880Y-48689337D01*
X90506541Y-48631974D01*
X90525423Y-48569731D01*
X90531798Y-48505000D01*
X90530200Y-48265350D01*
X90447650Y-48182800D01*
X88802800Y-48182800D01*
X88447200Y-48182800D01*
X88427200Y-48182800D01*
X88427200Y-47827200D01*
X88447200Y-47827200D01*
X88447200Y-47257350D01*
X88802800Y-47257350D01*
X88802800Y-47827200D01*
X90447650Y-47827200D01*
X90530200Y-47744650D01*
X90531798Y-47505000D01*
X90525423Y-47440269D01*
X90506541Y-47378026D01*
X90475880Y-47320663D01*
X90434617Y-47270383D01*
X90384337Y-47229120D01*
X90326974Y-47198459D01*
X90264731Y-47179577D01*
X90200000Y-47173202D01*
X88885350Y-47174800D01*
X88802800Y-47257350D01*
X88447200Y-47257350D01*
X88364650Y-47174800D01*
X87304400Y-47173511D01*
X87304400Y-46296489D01*
X88364650Y-46295200D01*
X88447200Y-46212650D01*
X88447200Y-45642800D01*
X88802800Y-45642800D01*
X88802800Y-46212650D01*
X88885350Y-46295200D01*
X90200000Y-46296798D01*
X90264731Y-46290423D01*
X90326974Y-46271541D01*
X90384337Y-46240880D01*
X90434617Y-46199617D01*
X90475880Y-46149337D01*
X90506541Y-46091974D01*
X90525423Y-46029731D01*
X90531798Y-45965000D01*
X90531185Y-45872934D01*
X91830600Y-45872934D01*
X91830600Y-45987066D01*
X91852866Y-46099005D01*
X91896543Y-46204449D01*
X91959951Y-46299346D01*
X92040654Y-46380049D01*
X92135551Y-46443457D01*
X92240995Y-46487134D01*
X92352934Y-46509400D01*
X92467066Y-46509400D01*
X92579005Y-46487134D01*
X92684449Y-46443457D01*
X92779346Y-46380049D01*
X92860049Y-46299346D01*
X92923457Y-46204449D01*
X92967134Y-46099005D01*
X92989400Y-45987066D01*
X92989400Y-45872934D01*
X92967134Y-45760995D01*
X92923457Y-45655551D01*
X92860049Y-45560654D01*
X92779346Y-45479951D01*
X92765600Y-45470766D01*
X92765600Y-44117293D01*
X93077295Y-43805600D01*
X98764084Y-43805600D01*
X98779951Y-43829346D01*
X98860654Y-43910049D01*
X98955551Y-43973457D01*
X99060995Y-44017134D01*
X99172934Y-44039400D01*
X99287066Y-44039400D01*
X99399005Y-44017134D01*
X99504449Y-43973457D01*
X99599346Y-43910049D01*
X99680049Y-43829346D01*
X99743457Y-43734449D01*
X99787134Y-43629005D01*
X99809400Y-43517066D01*
X99809400Y-43402934D01*
X99787134Y-43290995D01*
X99743457Y-43185551D01*
X99680049Y-43090654D01*
X99599346Y-43009951D01*
X99504449Y-42946543D01*
X99399005Y-42902866D01*
X99287066Y-42880600D01*
X99172934Y-42880600D01*
X99060995Y-42902866D01*
X98955551Y-42946543D01*
X98860654Y-43009951D01*
X98779951Y-43090654D01*
X98777448Y-43094400D01*
X92947455Y-43094400D01*
X92929999Y-43092681D01*
X92912544Y-43094400D01*
X92912537Y-43094400D01*
X92867187Y-43098867D01*
X92860289Y-43099546D01*
X92831102Y-43108400D01*
X92793260Y-43119879D01*
X92731484Y-43152899D01*
X92731482Y-43152900D01*
X92731483Y-43152900D01*
X92690900Y-43186205D01*
X92690895Y-43186210D01*
X92677337Y-43197337D01*
X92666210Y-43210895D01*
X92170901Y-43706206D01*
X92157337Y-43717338D01*
X92112899Y-43771485D01*
X92079879Y-43833261D01*
X92059546Y-43900291D01*
X92054400Y-43952538D01*
X92054400Y-43952545D01*
X92052681Y-43970000D01*
X92054400Y-43987456D01*
X92054401Y-45470766D01*
X92040654Y-45479951D01*
X91959951Y-45560654D01*
X91896543Y-45655551D01*
X91852866Y-45760995D01*
X91830600Y-45872934D01*
X90531185Y-45872934D01*
X90530200Y-45725350D01*
X90447650Y-45642800D01*
X88802800Y-45642800D01*
X88447200Y-45642800D01*
X88427200Y-45642800D01*
X88427200Y-45287200D01*
X88447200Y-45287200D01*
X88447200Y-44717350D01*
X88802800Y-44717350D01*
X88802800Y-45287200D01*
X90447650Y-45287200D01*
X90530200Y-45204650D01*
X90531798Y-44965000D01*
X90525423Y-44900269D01*
X90506541Y-44838026D01*
X90475880Y-44780663D01*
X90434617Y-44730383D01*
X90384337Y-44689120D01*
X90326974Y-44658459D01*
X90264731Y-44639577D01*
X90200000Y-44633202D01*
X88885350Y-44634800D01*
X88802800Y-44717350D01*
X88447200Y-44717350D01*
X88364650Y-44634800D01*
X87304400Y-44633511D01*
X87304400Y-43756489D01*
X88364650Y-43755200D01*
X88447200Y-43672650D01*
X88447200Y-43102800D01*
X88802800Y-43102800D01*
X88802800Y-43672650D01*
X88885350Y-43755200D01*
X90200000Y-43756798D01*
X90264731Y-43750423D01*
X90326974Y-43731541D01*
X90384337Y-43700880D01*
X90434617Y-43659617D01*
X90475880Y-43609337D01*
X90506541Y-43551974D01*
X90525423Y-43489731D01*
X90531798Y-43425000D01*
X90530200Y-43185350D01*
X90447650Y-43102800D01*
X88802800Y-43102800D01*
X88447200Y-43102800D01*
X88427200Y-43102800D01*
X88427200Y-42747200D01*
X88447200Y-42747200D01*
X88447200Y-42177350D01*
X88802800Y-42177350D01*
X88802800Y-42747200D01*
X90447650Y-42747200D01*
X90530200Y-42664650D01*
X90531798Y-42425000D01*
X90525423Y-42360269D01*
X90506541Y-42298026D01*
X90475880Y-42240663D01*
X90434617Y-42190383D01*
X90384337Y-42149120D01*
X90326974Y-42118459D01*
X90264731Y-42099577D01*
X90200000Y-42093202D01*
X88885350Y-42094800D01*
X88802800Y-42177350D01*
X88447200Y-42177350D01*
X88364650Y-42094800D01*
X87304400Y-42093511D01*
X87304400Y-40266242D01*
X87477529Y-40212650D01*
X87502993Y-40201946D01*
X87528543Y-40191623D01*
X87532296Y-40189628D01*
X87703972Y-40096803D01*
X87726828Y-40081387D01*
X87749932Y-40066268D01*
X87753225Y-40063582D01*
X87903603Y-39939178D01*
X87923065Y-39919580D01*
X87942755Y-39900298D01*
X87945464Y-39897024D01*
X88068814Y-39745782D01*
X88084088Y-39722792D01*
X88099669Y-39700037D01*
X88101690Y-39696299D01*
X88193316Y-39523977D01*
X88203855Y-39498407D01*
X88214697Y-39473111D01*
X88215951Y-39469061D01*
X88215955Y-39469051D01*
X88215957Y-39469041D01*
X88265665Y-39304400D01*
X103733758Y-39304400D01*
X103787350Y-39477529D01*
X103787350Y-39477529D01*
G37*
X103787350Y-39477529D02*
X103798054Y-39502993D01*
X103808377Y-39528543D01*
X103810372Y-39532296D01*
X103903197Y-39703972D01*
X103918613Y-39726828D01*
X103933732Y-39749932D01*
X103936418Y-39753225D01*
X104060822Y-39903603D01*
X104080420Y-39923065D01*
X104099702Y-39942755D01*
X104102976Y-39945464D01*
X104254218Y-40068814D01*
X104277208Y-40084088D01*
X104299963Y-40099669D01*
X104303701Y-40101690D01*
X104476023Y-40193316D01*
X104501593Y-40203855D01*
X104526889Y-40214697D01*
X104530939Y-40215951D01*
X104530949Y-40215955D01*
X104530959Y-40215957D01*
X104695601Y-40265665D01*
X104695601Y-42641926D01*
X104690519Y-42590332D01*
X104684440Y-42570290D01*
X104667281Y-42513725D01*
X104661686Y-42503258D01*
X104629544Y-42443124D01*
X104608717Y-42417746D01*
X104591482Y-42396745D01*
X104591477Y-42396740D01*
X104578758Y-42381242D01*
X104563260Y-42368523D01*
X103844671Y-41649934D01*
X103884449Y-41633457D01*
X103979346Y-41570049D01*
X104060049Y-41489346D01*
X104123457Y-41394449D01*
X104167134Y-41289005D01*
X104189400Y-41177066D01*
X104189400Y-41062934D01*
X104167134Y-40950995D01*
X104123457Y-40845551D01*
X104060049Y-40750654D01*
X103979346Y-40669951D01*
X103884449Y-40606543D01*
X103779005Y-40562866D01*
X103667066Y-40540600D01*
X103552934Y-40540600D01*
X103536719Y-40543825D01*
X103323798Y-40330905D01*
X103312663Y-40317337D01*
X103258516Y-40272899D01*
X103196740Y-40239879D01*
X103129710Y-40219546D01*
X103077463Y-40214400D01*
X103077455Y-40214400D01*
X103060000Y-40212681D01*
X103042545Y-40214400D01*
X93107452Y-40214400D01*
X93089999Y-40212681D01*
X93072546Y-40214400D01*
X93072537Y-40214400D01*
X93020290Y-40219546D01*
X92953260Y-40239879D01*
X92891484Y-40272899D01*
X92891482Y-40272900D01*
X92891483Y-40272900D01*
X92850900Y-40306205D01*
X92850895Y-40306210D01*
X92837337Y-40317337D01*
X92826210Y-40330895D01*
X92613281Y-40543825D01*
X92597066Y-40540600D01*
X92482934Y-40540600D01*
X92370995Y-40562866D01*
X92265551Y-40606543D01*
X92170654Y-40669951D01*
X92089951Y-40750654D01*
X92028413Y-40842752D01*
X91976876Y-40800456D01*
X91906275Y-40762719D01*
X91829668Y-40739481D01*
X91769960Y-40733600D01*
X91769953Y-40733600D01*
X91750000Y-40731635D01*
X91730047Y-40733600D01*
X90582995Y-40733600D01*
X90539346Y-40689951D01*
X90444449Y-40626543D01*
X90339005Y-40582866D01*
X90227066Y-40560600D01*
X90112934Y-40560600D01*
X90000995Y-40582866D01*
X89895551Y-40626543D01*
X89800654Y-40689951D01*
X89719951Y-40770654D01*
X89656543Y-40865551D01*
X89612866Y-40970995D01*
X89590600Y-41082934D01*
X89590600Y-41197066D01*
X89612866Y-41309005D01*
X89656543Y-41414449D01*
X89719951Y-41509346D01*
X89800654Y-41590049D01*
X89895551Y-41653457D01*
X90000995Y-41697134D01*
X90112934Y-41719400D01*
X90227066Y-41719400D01*
X90339005Y-41697134D01*
X90444449Y-41653457D01*
X90539346Y-41590049D01*
X90582995Y-41546400D01*
X91581664Y-41546400D01*
X92018522Y-41983259D01*
X92031242Y-41998758D01*
X92046740Y-42011477D01*
X92046745Y-42011482D01*
X92053858Y-42017319D01*
X92093124Y-42049544D01*
X92163725Y-42087281D01*
X92240331Y-42110519D01*
X92247604Y-42111235D01*
X92300040Y-42116400D01*
X92300047Y-42116400D01*
X92320000Y-42118365D01*
X92339953Y-42116400D01*
X92710047Y-42116400D01*
X92730000Y-42118365D01*
X92749953Y-42116400D01*
X92749960Y-42116400D01*
X92809668Y-42110519D01*
X92886275Y-42087281D01*
X92956876Y-42049544D01*
X93018758Y-41998758D01*
X93031482Y-41983254D01*
X93488337Y-41526400D01*
X99655824Y-41526400D01*
X99640600Y-41602934D01*
X99640600Y-41717066D01*
X99662866Y-41829005D01*
X99706543Y-41934449D01*
X99769951Y-42029346D01*
X99850654Y-42110049D01*
X99945551Y-42173457D01*
X100050995Y-42217134D01*
X100162934Y-42239400D01*
X100277066Y-42239400D01*
X100389005Y-42217134D01*
X100494449Y-42173457D01*
X100589346Y-42110049D01*
X100670049Y-42029346D01*
X100685916Y-42005600D01*
X102512707Y-42005600D01*
X103294401Y-42787296D01*
X103294400Y-43310766D01*
X103280654Y-43319951D01*
X103199951Y-43400654D01*
X103136543Y-43495551D01*
X103092866Y-43600995D01*
X103070600Y-43712934D01*
X103070600Y-43827066D01*
X103092866Y-43939005D01*
X103136543Y-44044449D01*
X103199951Y-44139346D01*
X103280654Y-44220049D01*
X103294401Y-44229234D01*
X103294400Y-48262706D01*
X103232707Y-48324400D01*
X102897452Y-48324400D01*
X102879999Y-48322681D01*
X102862546Y-48324400D01*
X102862537Y-48324400D01*
X102810290Y-48329546D01*
X102743260Y-48349879D01*
X102681484Y-48382899D01*
X102681482Y-48382900D01*
X102681483Y-48382900D01*
X102640900Y-48416205D01*
X102640895Y-48416210D01*
X102627337Y-48427337D01*
X102616210Y-48440896D01*
X102390900Y-48666207D01*
X102377338Y-48677337D01*
X102332900Y-48731484D01*
X102321587Y-48752650D01*
X102299880Y-48793259D01*
X102279546Y-48860290D01*
X102272681Y-48930000D01*
X102274401Y-48947465D01*
X102274401Y-49214396D01*
X102233457Y-49115551D01*
X102170049Y-49020654D01*
X102089346Y-48939951D01*
X102075600Y-48930766D01*
X102075600Y-47747455D01*
X102077319Y-47730000D01*
X102075600Y-47712544D01*
X102075600Y-47712537D01*
X102070454Y-47660290D01*
X102069378Y-47656741D01*
X102064286Y-47639956D01*
X102050121Y-47593260D01*
X102017101Y-47531484D01*
X101972663Y-47477337D01*
X101959094Y-47466201D01*
X101773799Y-47280906D01*
X101762663Y-47267337D01*
X101708516Y-47222899D01*
X101646740Y-47189879D01*
X101579710Y-47169546D01*
X101527463Y-47164400D01*
X101527455Y-47164400D01*
X101510000Y-47162681D01*
X101492545Y-47164400D01*
X101379234Y-47164400D01*
X101370049Y-47150654D01*
X101289346Y-47069951D01*
X101194449Y-47006543D01*
X101089005Y-46962866D01*
X100977066Y-46940600D01*
X100862934Y-46940600D01*
X100750995Y-46962866D01*
X100645551Y-47006543D01*
X100550654Y-47069951D01*
X100469951Y-47150654D01*
X100406543Y-47245551D01*
X100362866Y-47350995D01*
X100340600Y-47462934D01*
X100340600Y-47577066D01*
X100362866Y-47689005D01*
X100406543Y-47794449D01*
X100469951Y-47889346D01*
X100550654Y-47970049D01*
X100645551Y-48033457D01*
X100750995Y-48077134D01*
X100862934Y-48099400D01*
X100977066Y-48099400D01*
X101089005Y-48077134D01*
X101194449Y-48033457D01*
X101289346Y-47970049D01*
X101364401Y-47894994D01*
X101364400Y-48930766D01*
X101350654Y-48939951D01*
X101269951Y-49020654D01*
X101206543Y-49115551D01*
X101162866Y-49220995D01*
X101140600Y-49332934D01*
X101140600Y-49447066D01*
X101162866Y-49559005D01*
X101206543Y-49664449D01*
X101269951Y-49759346D01*
X101350654Y-49840049D01*
X101445551Y-49903457D01*
X101550995Y-49947134D01*
X101662934Y-49969400D01*
X101777066Y-49969400D01*
X101889005Y-49947134D01*
X101994449Y-49903457D01*
X102089346Y-49840049D01*
X102170049Y-49759346D01*
X102233457Y-49664449D01*
X102274400Y-49565604D01*
X102274400Y-49952706D01*
X102162706Y-50064400D01*
X94229234Y-50064400D01*
X94220049Y-50050654D01*
X94139346Y-49969951D01*
X94044449Y-49906543D01*
X93939005Y-49862866D01*
X93827066Y-49840600D01*
X93712934Y-49840600D01*
X93600995Y-49862866D01*
X93495551Y-49906543D01*
X93400654Y-49969951D01*
X93319951Y-50050654D01*
X93256543Y-50145551D01*
X93212866Y-50250995D01*
X93190600Y-50362934D01*
X93190600Y-50477066D01*
X93212866Y-50589005D01*
X93256543Y-50694449D01*
X93319951Y-50789346D01*
X93400654Y-50870049D01*
X93495551Y-50933457D01*
X93600995Y-50977134D01*
X93712934Y-50999400D01*
X93827066Y-50999400D01*
X93939005Y-50977134D01*
X94044449Y-50933457D01*
X94139346Y-50870049D01*
X94220049Y-50789346D01*
X94229234Y-50775600D01*
X102292545Y-50775600D01*
X102310000Y-50777319D01*
X102327455Y-50775600D01*
X102327463Y-50775600D01*
X102379710Y-50770454D01*
X102446740Y-50750121D01*
X102508516Y-50717101D01*
X102562663Y-50672663D01*
X102573798Y-50659095D01*
X102869109Y-50363786D01*
X102882662Y-50352663D01*
X102893785Y-50339110D01*
X102893795Y-50339100D01*
X102927100Y-50298517D01*
X102927102Y-50298515D01*
X102960121Y-50236740D01*
X102980454Y-50169710D01*
X102985600Y-50117463D01*
X102985600Y-50117454D01*
X102987319Y-50100001D01*
X102985600Y-50082548D01*
X102985600Y-49784995D01*
X103030654Y-49830049D01*
X103044401Y-49839234D01*
X103044400Y-52202537D01*
X103044400Y-52354400D01*
X99809234Y-52354400D01*
X99800049Y-52340654D01*
X99719346Y-52259951D01*
X99705600Y-52250766D01*
X99705600Y-51927452D01*
X99707319Y-51909999D01*
X99705600Y-51892546D01*
X99705600Y-51892537D01*
X99700454Y-51840290D01*
X99680121Y-51773260D01*
X99647101Y-51711484D01*
X99643933Y-51707624D01*
X99613795Y-51670900D01*
X99613785Y-51670890D01*
X99602662Y-51657337D01*
X99589109Y-51646214D01*
X99143798Y-51200905D01*
X99132663Y-51187337D01*
X99078516Y-51142899D01*
X99016740Y-51109879D01*
X98949710Y-51089546D01*
X98897463Y-51084400D01*
X98897455Y-51084400D01*
X98880000Y-51082681D01*
X98862545Y-51084400D01*
X94939234Y-51084400D01*
X94930049Y-51070654D01*
X94849346Y-50989951D01*
X94754449Y-50926543D01*
X94649005Y-50882866D01*
X94537066Y-50860600D01*
X94422934Y-50860600D01*
X94310995Y-50882866D01*
X94205551Y-50926543D01*
X94110654Y-50989951D01*
X94029951Y-51070654D01*
X93966543Y-51165551D01*
X93922866Y-51270995D01*
X93900600Y-51382934D01*
X93900600Y-51497066D01*
X93922866Y-51609005D01*
X93966543Y-51714449D01*
X94029951Y-51809346D01*
X94110654Y-51890049D01*
X94205551Y-51953457D01*
X94310995Y-51997134D01*
X94422934Y-52019400D01*
X94537066Y-52019400D01*
X94649005Y-51997134D01*
X94754449Y-51953457D01*
X94849346Y-51890049D01*
X94930049Y-51809346D01*
X94939234Y-51795600D01*
X98732707Y-51795600D01*
X98994400Y-52057295D01*
X98994400Y-52250766D01*
X98980654Y-52259951D01*
X98899951Y-52340654D01*
X98836543Y-52435551D01*
X98792866Y-52540995D01*
X98770600Y-52652934D01*
X98770600Y-52767066D01*
X98792866Y-52879005D01*
X98836543Y-52984449D01*
X98899951Y-53079346D01*
X98980654Y-53160049D01*
X99075551Y-53223457D01*
X99180995Y-53267134D01*
X99292934Y-53289400D01*
X99407066Y-53289400D01*
X99519005Y-53267134D01*
X99624449Y-53223457D01*
X99719346Y-53160049D01*
X99800049Y-53079346D01*
X99809234Y-53065600D01*
X103044401Y-53065600D01*
X103044400Y-55442706D01*
X102812707Y-55674400D01*
X94065916Y-55674400D01*
X94050049Y-55650654D01*
X93969346Y-55569951D01*
X93874449Y-55506543D01*
X93769005Y-55462866D01*
X93657066Y-55440600D01*
X93542934Y-55440600D01*
X93430995Y-55462866D01*
X93325551Y-55506543D01*
X93230654Y-55569951D01*
X93149951Y-55650654D01*
X93086543Y-55745551D01*
X93042866Y-55850995D01*
X93020600Y-55962934D01*
X93020600Y-56077066D01*
X93042866Y-56189005D01*
X93086543Y-56294449D01*
X93149951Y-56389346D01*
X93230654Y-56470049D01*
X93325551Y-56533457D01*
X93430995Y-56577134D01*
X93542934Y-56599400D01*
X93657066Y-56599400D01*
X93769005Y-56577134D01*
X93874449Y-56533457D01*
X93969346Y-56470049D01*
X94050049Y-56389346D01*
X94052552Y-56385600D01*
X102942545Y-56385600D01*
X102960000Y-56387319D01*
X102977455Y-56385600D01*
X102977463Y-56385600D01*
X103029710Y-56380454D01*
X103096740Y-56360121D01*
X103158516Y-56327101D01*
X103212663Y-56282663D01*
X103223799Y-56269094D01*
X103639104Y-55853790D01*
X103652662Y-55842663D01*
X103663790Y-55829104D01*
X103663795Y-55829099D01*
X103681411Y-55807634D01*
X103697101Y-55788516D01*
X103730121Y-55726740D01*
X103750454Y-55659710D01*
X103755600Y-55607463D01*
X103755600Y-55607456D01*
X103757319Y-55590000D01*
X103755600Y-55572545D01*
X103755600Y-54218031D01*
X103766543Y-54244449D01*
X103829951Y-54339346D01*
X103910654Y-54420049D01*
X104005551Y-54483457D01*
X104110995Y-54527134D01*
X104222934Y-54549400D01*
X104337066Y-54549400D01*
X104449005Y-54527134D01*
X104554449Y-54483457D01*
X104649346Y-54420049D01*
X104695600Y-54373795D01*
X104695600Y-55733758D01*
X104522471Y-55787350D01*
X104497018Y-55798049D01*
X104471457Y-55808377D01*
X104467704Y-55810372D01*
X104296027Y-55903197D01*
X104273139Y-55918635D01*
X104250068Y-55933732D01*
X104246774Y-55936418D01*
X104096397Y-56060822D01*
X104076935Y-56080420D01*
X104057245Y-56099702D01*
X104054536Y-56102976D01*
X103931186Y-56254218D01*
X103915906Y-56277216D01*
X103900332Y-56299962D01*
X103898310Y-56303701D01*
X103806685Y-56476023D01*
X103796176Y-56501520D01*
X103785303Y-56526889D01*
X103784046Y-56530949D01*
X103734335Y-56695600D01*
X90236140Y-56695600D01*
X90289346Y-56660049D01*
X90370049Y-56579346D01*
X90379234Y-56565600D01*
X91962545Y-56565600D01*
X91980000Y-56567319D01*
X91997455Y-56565600D01*
X91997463Y-56565600D01*
X92049710Y-56560454D01*
X92116740Y-56540121D01*
X92178516Y-56507101D01*
X92232663Y-56462663D01*
X92243799Y-56449094D01*
X92659104Y-56033790D01*
X92672662Y-56022663D01*
X92683790Y-56009104D01*
X92683795Y-56009099D01*
X92703210Y-55985441D01*
X92717101Y-55968516D01*
X92750121Y-55906740D01*
X92765174Y-55857116D01*
X92770454Y-55839711D01*
X92771604Y-55828036D01*
X92775600Y-55787463D01*
X92775600Y-55787456D01*
X92777319Y-55770000D01*
X92775600Y-55752545D01*
X92775600Y-55022934D01*
X98700600Y-55022934D01*
X98700600Y-55137066D01*
X98722866Y-55249005D01*
X98766543Y-55354449D01*
X98829951Y-55449346D01*
X98910654Y-55530049D01*
X99005551Y-55593457D01*
X99110995Y-55637134D01*
X99222934Y-55659400D01*
X99337066Y-55659400D01*
X99449005Y-55637134D01*
X99554449Y-55593457D01*
X99649346Y-55530049D01*
X99692995Y-55486400D01*
X99857005Y-55486400D01*
X99900654Y-55530049D01*
X99995551Y-55593457D01*
X100100995Y-55637134D01*
X100212934Y-55659400D01*
X100327066Y-55659400D01*
X100439005Y-55637134D01*
X100544449Y-55593457D01*
X100639346Y-55530049D01*
X100720049Y-55449346D01*
X100783457Y-55354449D01*
X100827134Y-55249005D01*
X100849400Y-55137066D01*
X100849400Y-55022934D01*
X100827134Y-54910995D01*
X100783457Y-54805551D01*
X100720049Y-54710654D01*
X100639346Y-54629951D01*
X100544449Y-54566543D01*
X100439005Y-54522866D01*
X100327066Y-54500600D01*
X100212934Y-54500600D01*
X100100995Y-54522866D01*
X99995551Y-54566543D01*
X99900654Y-54629951D01*
X99857005Y-54673600D01*
X99692995Y-54673600D01*
X99649346Y-54629951D01*
X99554449Y-54566543D01*
X99449005Y-54522866D01*
X99337066Y-54500600D01*
X99222934Y-54500600D01*
X99110995Y-54522866D01*
X99005551Y-54566543D01*
X98910654Y-54629951D01*
X98829951Y-54710654D01*
X98766543Y-54805551D01*
X98722866Y-54910995D01*
X98700600Y-55022934D01*
X92775600Y-55022934D01*
X92775600Y-54899234D01*
X92789346Y-54890049D01*
X92870049Y-54809346D01*
X92933457Y-54714449D01*
X92977134Y-54609005D01*
X92999400Y-54497066D01*
X92999400Y-54382934D01*
X92977134Y-54270995D01*
X92933457Y-54165551D01*
X92870049Y-54070654D01*
X92789346Y-53989951D01*
X92694449Y-53926543D01*
X92589005Y-53882866D01*
X92477066Y-53860600D01*
X92362934Y-53860600D01*
X92250995Y-53882866D01*
X92145551Y-53926543D01*
X92050654Y-53989951D01*
X91969951Y-54070654D01*
X91906543Y-54165551D01*
X91862866Y-54270995D01*
X91840600Y-54382934D01*
X91840600Y-54497066D01*
X91862866Y-54609005D01*
X91906543Y-54714449D01*
X91969951Y-54809346D01*
X92050654Y-54890049D01*
X92064401Y-54899234D01*
X92064400Y-55622706D01*
X91832707Y-55854400D01*
X90379234Y-55854400D01*
X90370049Y-55840654D01*
X90289346Y-55759951D01*
X90194449Y-55696543D01*
X90089005Y-55652866D01*
X89977066Y-55630600D01*
X89862934Y-55630600D01*
X89750995Y-55652866D01*
X89645551Y-55696543D01*
X89550654Y-55759951D01*
X89469951Y-55840654D01*
X89406543Y-55935551D01*
X89362866Y-56040995D01*
X89340600Y-56152934D01*
X89340600Y-56267066D01*
X89362866Y-56379005D01*
X89406543Y-56484449D01*
X89469951Y-56579346D01*
X89550654Y-56660049D01*
X89603860Y-56695600D01*
X88266242Y-56695600D01*
X88212650Y-56522471D01*
X88201951Y-56497018D01*
X88191623Y-56471457D01*
X88189628Y-56467704D01*
X88096803Y-56296027D01*
X88081365Y-56273139D01*
X88066268Y-56250068D01*
X88063582Y-56246774D01*
X87939178Y-56096397D01*
X87919580Y-56076935D01*
X87900298Y-56057245D01*
X87897024Y-56054536D01*
X87745782Y-55931186D01*
X87722784Y-55915906D01*
X87700038Y-55900332D01*
X87696299Y-55898310D01*
X87523977Y-55806685D01*
X87498480Y-55796176D01*
X87473111Y-55785303D01*
X87469051Y-55784046D01*
X87304400Y-55734335D01*
X87304400Y-53916489D01*
X88364650Y-53915200D01*
X88447200Y-53832650D01*
X88447200Y-53262800D01*
X88802800Y-53262800D01*
X88802800Y-53832650D01*
X88885350Y-53915200D01*
X90200000Y-53916798D01*
X90264731Y-53910423D01*
X90326974Y-53891541D01*
X90384337Y-53860880D01*
X90434617Y-53819617D01*
X90475880Y-53769337D01*
X90506541Y-53711974D01*
X90525423Y-53649731D01*
X90531798Y-53585000D01*
X90530200Y-53345350D01*
X90447650Y-53262800D01*
X88802800Y-53262800D01*
X88447200Y-53262800D01*
X88427200Y-53262800D01*
X88427200Y-52907200D01*
X88447200Y-52907200D01*
X88447200Y-52337350D01*
X88802800Y-52337350D01*
X88802800Y-52907200D01*
X90447650Y-52907200D01*
X90530200Y-52824650D01*
X90531798Y-52585000D01*
X90525423Y-52520269D01*
X90506541Y-52458026D01*
X90475880Y-52400663D01*
X90434617Y-52350383D01*
X90384337Y-52309120D01*
X90326974Y-52278459D01*
X90264731Y-52259577D01*
X90200000Y-52253202D01*
X88885350Y-52254800D01*
X88802800Y-52337350D01*
X88447200Y-52337350D01*
X88364650Y-52254800D01*
X87304400Y-52253511D01*
X87304400Y-51376489D01*
X88364650Y-51375200D01*
X88447200Y-51292650D01*
X88447200Y-50722800D01*
X88802800Y-50722800D01*
X88802800Y-51292650D01*
X88885350Y-51375200D01*
X90200000Y-51376798D01*
X90264731Y-51370423D01*
X90326974Y-51351541D01*
X90384337Y-51320880D01*
X90434617Y-51279617D01*
X90475880Y-51229337D01*
X90506541Y-51171974D01*
X90525423Y-51109731D01*
X90531798Y-51045000D01*
X90530200Y-50805350D01*
X90447650Y-50722800D01*
X88802800Y-50722800D01*
X88447200Y-50722800D01*
X88427200Y-50722800D01*
X88427200Y-50367200D01*
X88447200Y-50367200D01*
X88447200Y-49797350D01*
X88802800Y-49797350D01*
X88802800Y-50367200D01*
X90447650Y-50367200D01*
X90530200Y-50284650D01*
X90531798Y-50045000D01*
X90525423Y-49980269D01*
X90506541Y-49918026D01*
X90475880Y-49860663D01*
X90434617Y-49810383D01*
X90384337Y-49769120D01*
X90326974Y-49738459D01*
X90264731Y-49719577D01*
X90200000Y-49713202D01*
X88885350Y-49714800D01*
X88802800Y-49797350D01*
X88447200Y-49797350D01*
X88364650Y-49714800D01*
X87304400Y-49713511D01*
X87304400Y-48892934D01*
X91820600Y-48892934D01*
X91820600Y-49007066D01*
X91842866Y-49119005D01*
X91886543Y-49224449D01*
X91949951Y-49319346D01*
X91993601Y-49362996D01*
X91993600Y-52087005D01*
X91949951Y-52130654D01*
X91886543Y-52225551D01*
X91842866Y-52330995D01*
X91820600Y-52442934D01*
X91820600Y-52557066D01*
X91842866Y-52669005D01*
X91886543Y-52774449D01*
X91949951Y-52869346D01*
X92030654Y-52950049D01*
X92125551Y-53013457D01*
X92230995Y-53057134D01*
X92342934Y-53079400D01*
X92457066Y-53079400D01*
X92569005Y-53057134D01*
X92674449Y-53013457D01*
X92769346Y-52950049D01*
X92850049Y-52869346D01*
X92913457Y-52774449D01*
X92957134Y-52669005D01*
X92979400Y-52557066D01*
X92979400Y-52442934D01*
X92957134Y-52330995D01*
X92913457Y-52225551D01*
X92850049Y-52130654D01*
X92806400Y-52087005D01*
X92806400Y-49362995D01*
X92850049Y-49319346D01*
X92913457Y-49224449D01*
X92957134Y-49119005D01*
X92979400Y-49007066D01*
X92979400Y-48892934D01*
X92957134Y-48780995D01*
X92913457Y-48675551D01*
X92850049Y-48580654D01*
X92769346Y-48499951D01*
X92674449Y-48436543D01*
X92569005Y-48392866D01*
X92468800Y-48372934D01*
X98370600Y-48372934D01*
X98370600Y-48487066D01*
X98392866Y-48599005D01*
X98436543Y-48704449D01*
X98499951Y-48799346D01*
X98580654Y-48880049D01*
X98675551Y-48943457D01*
X98780995Y-48987134D01*
X98892934Y-49009400D01*
X99007066Y-49009400D01*
X99119005Y-48987134D01*
X99224449Y-48943457D01*
X99319346Y-48880049D01*
X99400049Y-48799346D01*
X99463457Y-48704449D01*
X99507134Y-48599005D01*
X99529400Y-48487066D01*
X99529400Y-48372934D01*
X99507134Y-48260995D01*
X99463457Y-48155551D01*
X99400049Y-48060654D01*
X99319346Y-47979951D01*
X99315600Y-47977448D01*
X99315600Y-47269234D01*
X99329346Y-47260049D01*
X99410049Y-47179346D01*
X99473457Y-47084449D01*
X99517134Y-46979005D01*
X99539400Y-46867066D01*
X99539400Y-46752934D01*
X99517134Y-46640995D01*
X99473457Y-46535551D01*
X99410049Y-46440654D01*
X99329346Y-46359951D01*
X99234449Y-46296543D01*
X99129005Y-46252866D01*
X99017066Y-46230600D01*
X98902934Y-46230600D01*
X98790995Y-46252866D01*
X98685551Y-46296543D01*
X98590654Y-46359951D01*
X98509951Y-46440654D01*
X98446543Y-46535551D01*
X98402866Y-46640995D01*
X98380600Y-46752934D01*
X98380600Y-46867066D01*
X98402866Y-46979005D01*
X98446543Y-47084449D01*
X98509951Y-47179346D01*
X98590654Y-47260049D01*
X98604401Y-47269234D01*
X98604400Y-47964084D01*
X98580654Y-47979951D01*
X98499951Y-48060654D01*
X98436543Y-48155551D01*
X98392866Y-48260995D01*
X98370600Y-48372934D01*
X92468800Y-48372934D01*
X92457066Y-48370600D01*
X92342934Y-48370600D01*
X92230995Y-48392866D01*
X92125551Y-48436543D01*
X92030654Y-48499951D01*
X91949951Y-48580654D01*
X91886543Y-48675551D01*
X91842866Y-48780995D01*
X91820600Y-48892934D01*
X87304400Y-48892934D01*
X87304400Y-48836489D01*
X88364650Y-48835200D01*
X88447200Y-48752650D01*
X88447200Y-48182800D01*
X88802800Y-48182800D01*
X88802800Y-48752650D01*
X88885350Y-48835200D01*
X90200000Y-48836798D01*
X90264731Y-48830423D01*
X90326974Y-48811541D01*
X90384337Y-48780880D01*
X90434617Y-48739617D01*
X90475880Y-48689337D01*
X90506541Y-48631974D01*
X90525423Y-48569731D01*
X90531798Y-48505000D01*
X90530200Y-48265350D01*
X90447650Y-48182800D01*
X88802800Y-48182800D01*
X88447200Y-48182800D01*
X88427200Y-48182800D01*
X88427200Y-47827200D01*
X88447200Y-47827200D01*
X88447200Y-47257350D01*
X88802800Y-47257350D01*
X88802800Y-47827200D01*
X90447650Y-47827200D01*
X90530200Y-47744650D01*
X90531798Y-47505000D01*
X90525423Y-47440269D01*
X90506541Y-47378026D01*
X90475880Y-47320663D01*
X90434617Y-47270383D01*
X90384337Y-47229120D01*
X90326974Y-47198459D01*
X90264731Y-47179577D01*
X90200000Y-47173202D01*
X88885350Y-47174800D01*
X88802800Y-47257350D01*
X88447200Y-47257350D01*
X88364650Y-47174800D01*
X87304400Y-47173511D01*
X87304400Y-46296489D01*
X88364650Y-46295200D01*
X88447200Y-46212650D01*
X88447200Y-45642800D01*
X88802800Y-45642800D01*
X88802800Y-46212650D01*
X88885350Y-46295200D01*
X90200000Y-46296798D01*
X90264731Y-46290423D01*
X90326974Y-46271541D01*
X90384337Y-46240880D01*
X90434617Y-46199617D01*
X90475880Y-46149337D01*
X90506541Y-46091974D01*
X90525423Y-46029731D01*
X90531798Y-45965000D01*
X90531185Y-45872934D01*
X91830600Y-45872934D01*
X91830600Y-45987066D01*
X91852866Y-46099005D01*
X91896543Y-46204449D01*
X91959951Y-46299346D01*
X92040654Y-46380049D01*
X92135551Y-46443457D01*
X92240995Y-46487134D01*
X92352934Y-46509400D01*
X92467066Y-46509400D01*
X92579005Y-46487134D01*
X92684449Y-46443457D01*
X92779346Y-46380049D01*
X92860049Y-46299346D01*
X92923457Y-46204449D01*
X92967134Y-46099005D01*
X92989400Y-45987066D01*
X92989400Y-45872934D01*
X92967134Y-45760995D01*
X92923457Y-45655551D01*
X92860049Y-45560654D01*
X92779346Y-45479951D01*
X92765600Y-45470766D01*
X92765600Y-44117293D01*
X93077295Y-43805600D01*
X98764084Y-43805600D01*
X98779951Y-43829346D01*
X98860654Y-43910049D01*
X98955551Y-43973457D01*
X99060995Y-44017134D01*
X99172934Y-44039400D01*
X99287066Y-44039400D01*
X99399005Y-44017134D01*
X99504449Y-43973457D01*
X99599346Y-43910049D01*
X99680049Y-43829346D01*
X99743457Y-43734449D01*
X99787134Y-43629005D01*
X99809400Y-43517066D01*
X99809400Y-43402934D01*
X99787134Y-43290995D01*
X99743457Y-43185551D01*
X99680049Y-43090654D01*
X99599346Y-43009951D01*
X99504449Y-42946543D01*
X99399005Y-42902866D01*
X99287066Y-42880600D01*
X99172934Y-42880600D01*
X99060995Y-42902866D01*
X98955551Y-42946543D01*
X98860654Y-43009951D01*
X98779951Y-43090654D01*
X98777448Y-43094400D01*
X92947455Y-43094400D01*
X92929999Y-43092681D01*
X92912544Y-43094400D01*
X92912537Y-43094400D01*
X92867187Y-43098867D01*
X92860289Y-43099546D01*
X92831102Y-43108400D01*
X92793260Y-43119879D01*
X92731484Y-43152899D01*
X92731482Y-43152900D01*
X92731483Y-43152900D01*
X92690900Y-43186205D01*
X92690895Y-43186210D01*
X92677337Y-43197337D01*
X92666210Y-43210895D01*
X92170901Y-43706206D01*
X92157337Y-43717338D01*
X92112899Y-43771485D01*
X92079879Y-43833261D01*
X92059546Y-43900291D01*
X92054400Y-43952538D01*
X92054400Y-43952545D01*
X92052681Y-43970000D01*
X92054400Y-43987456D01*
X92054401Y-45470766D01*
X92040654Y-45479951D01*
X91959951Y-45560654D01*
X91896543Y-45655551D01*
X91852866Y-45760995D01*
X91830600Y-45872934D01*
X90531185Y-45872934D01*
X90530200Y-45725350D01*
X90447650Y-45642800D01*
X88802800Y-45642800D01*
X88447200Y-45642800D01*
X88427200Y-45642800D01*
X88427200Y-45287200D01*
X88447200Y-45287200D01*
X88447200Y-44717350D01*
X88802800Y-44717350D01*
X88802800Y-45287200D01*
X90447650Y-45287200D01*
X90530200Y-45204650D01*
X90531798Y-44965000D01*
X90525423Y-44900269D01*
X90506541Y-44838026D01*
X90475880Y-44780663D01*
X90434617Y-44730383D01*
X90384337Y-44689120D01*
X90326974Y-44658459D01*
X90264731Y-44639577D01*
X90200000Y-44633202D01*
X88885350Y-44634800D01*
X88802800Y-44717350D01*
X88447200Y-44717350D01*
X88364650Y-44634800D01*
X87304400Y-44633511D01*
X87304400Y-43756489D01*
X88364650Y-43755200D01*
X88447200Y-43672650D01*
X88447200Y-43102800D01*
X88802800Y-43102800D01*
X88802800Y-43672650D01*
X88885350Y-43755200D01*
X90200000Y-43756798D01*
X90264731Y-43750423D01*
X90326974Y-43731541D01*
X90384337Y-43700880D01*
X90434617Y-43659617D01*
X90475880Y-43609337D01*
X90506541Y-43551974D01*
X90525423Y-43489731D01*
X90531798Y-43425000D01*
X90530200Y-43185350D01*
X90447650Y-43102800D01*
X88802800Y-43102800D01*
X88447200Y-43102800D01*
X88427200Y-43102800D01*
X88427200Y-42747200D01*
X88447200Y-42747200D01*
X88447200Y-42177350D01*
X88802800Y-42177350D01*
X88802800Y-42747200D01*
X90447650Y-42747200D01*
X90530200Y-42664650D01*
X90531798Y-42425000D01*
X90525423Y-42360269D01*
X90506541Y-42298026D01*
X90475880Y-42240663D01*
X90434617Y-42190383D01*
X90384337Y-42149120D01*
X90326974Y-42118459D01*
X90264731Y-42099577D01*
X90200000Y-42093202D01*
X88885350Y-42094800D01*
X88802800Y-42177350D01*
X88447200Y-42177350D01*
X88364650Y-42094800D01*
X87304400Y-42093511D01*
X87304400Y-40266242D01*
X87477529Y-40212650D01*
X87502993Y-40201946D01*
X87528543Y-40191623D01*
X87532296Y-40189628D01*
X87703972Y-40096803D01*
X87726828Y-40081387D01*
X87749932Y-40066268D01*
X87753225Y-40063582D01*
X87903603Y-39939178D01*
X87923065Y-39919580D01*
X87942755Y-39900298D01*
X87945464Y-39897024D01*
X88068814Y-39745782D01*
X88084088Y-39722792D01*
X88099669Y-39700037D01*
X88101690Y-39696299D01*
X88193316Y-39523977D01*
X88203855Y-39498407D01*
X88214697Y-39473111D01*
X88215951Y-39469061D01*
X88215955Y-39469051D01*
X88215957Y-39469041D01*
X88265665Y-39304400D01*
X103733758Y-39304400D01*
X103787350Y-39477529D01*
M02*
