M48
; DRILL file {KiCad (5.1.2)-2} date 22.07.2019 07:29:22
; FORMAT={-:-/ absolute / metric / decimal}
; #@! TF.CreationDate,2019-07-22T07:29:22+02:00
; #@! TF.GenerationSoftware,Kicad,Pcbnew,(5.1.2)-2
; #@! TF.FileFunction,Plated,1,2,PTH
FMAT,2
METRIC
T1C0.300
%
G90
G05
T1
X89.92Y-56.21
X90.17Y-41.14
X92.4Y-48.95
X92.4Y-52.5
X92.41Y-45.93
X92.42Y-54.44
X92.54Y-41.12
X93.505Y-44.425
X93.6Y-56.02
X93.77Y-50.42
X94.48Y-51.44
X94.55Y-45.56
X98.95Y-48.43
X98.96Y-46.81
X99.23Y-43.46
X99.28Y-55.08
X99.35Y-52.71
X100.22Y-41.66
X100.27Y-55.08
X100.92Y-47.52
X101.72Y-49.39
X103.4Y-49.38
X103.61Y-41.12
X103.65Y-43.77
X104.28Y-53.97
X104.29Y-51.47
T0
M30
